<svg xmlns="http://www.w3.org/2000/svg" width="18" height="16" viewBox="0 0 18 16">
  <g id="About_us" data-name="About us" transform="translate(0 -32)">
    <g id="Group_1092" data-name="Group 1092" transform="translate(9.079 32)">
      <g id="Group_1091" data-name="Group 1091">
        <path id="Path_507" data-name="Path 507" d="M265.385,41.533l-2.469-.542v-.736a5.951,5.951,0,0,0,.375-.69,5.012,5.012,0,0,1,.287-.537,3.193,3.193,0,0,0,.97-1.554,1.356,1.356,0,0,0-.135-1.109,8.16,8.16,0,0,0-.16-1.925,2.131,2.131,0,0,0-.495-1.534,1.453,1.453,0,0,0-.926-.419,1.47,1.47,0,0,1-.28-.065A3.349,3.349,0,0,0,260.945,32a3.864,3.864,0,0,0-2.548,1.143.577.577,0,0,0,.008.808.556.556,0,0,0,.8-.008,2.739,2.739,0,0,1,1.757-.8,2.2,2.2,0,0,1,1.054.281,1.916,1.916,0,0,0,.63.191,2.251,2.251,0,0,1,.285.061c.081.087.193.206.2.861a.588.588,0,0,0,.024.153,7.1,7.1,0,0,1,.134,1.677.992.992,0,0,0,.129.47.489.489,0,0,1,.03.4,2.15,2.15,0,0,1-.657.976,3.411,3.411,0,0,0-.505.841,4.27,4.27,0,0,1-.328.6.576.576,0,0,0-.165.4v1.394a.57.57,0,0,0,.444.559l2.913.64a1.132,1.132,0,0,1,.884,1.121v.8h-2.925a.571.571,0,0,0,0,1.143h3.487a.567.567,0,0,0,.563-.571V43.771A2.265,2.265,0,0,0,265.385,41.533Z" transform="translate(-258.235 -32)" fill="#999"/>
      </g>
    </g>
    <g id="Group_1094" data-name="Group 1094" transform="translate(0 34.286)">
      <g id="Group_1093" data-name="Group 1093">
        <path id="Path_508" data-name="Path 508" d="M10.6,105.537l-2.47-.545v-.741a5.917,5.917,0,0,0,.375-.683,4.6,4.6,0,0,1,.293-.538,3.116,3.116,0,0,0,.962-1.55,1.375,1.375,0,0,0-.132-1.119,8.5,8.5,0,0,0-.158-1.912,2.189,2.189,0,0,0-.5-1.562,1.489,1.489,0,0,0-.912-.4,1.6,1.6,0,0,1-.279-.062A3.291,3.291,0,0,0,6.166,96a3.728,3.728,0,0,0-3.3,2.305,5.48,5.48,0,0,0-.133,1.73v.279a1.609,1.609,0,0,0-.125,1.166,3.108,3.108,0,0,0,.959,1.547,4.613,4.613,0,0,1,.3.544,6.233,6.233,0,0,0,.375.68v.742l-2.47.545A2.29,2.29,0,0,0,0,107.771v1.371a.567.567,0,0,0,.563.571h11.25a.567.567,0,0,0,.563-.571v-1.371A2.293,2.293,0,0,0,10.6,105.537Zm.648,3.034H1.125v-.8a1.146,1.146,0,0,1,.886-1.117l2.914-.642a.569.569,0,0,0,.443-.559v-1.4a.62.62,0,0,0-.167-.406,4.381,4.381,0,0,1-.331-.593,3.443,3.443,0,0,0-.514-.839,2.078,2.078,0,0,1-.646-.965c-.053-.259-.021-.322.026-.416a1.009,1.009,0,0,0,.128-.472l0-.349a5.683,5.683,0,0,1,.065-1.32,2.589,2.589,0,0,1,2.247-1.55,2.128,2.128,0,0,1,1.057.286,1.948,1.948,0,0,0,.637.19c.1.018.251.043.273.043.089.1.2.221.207.877a.548.548,0,0,0,.023.153A7.329,7.329,0,0,1,8.5,100.36a1.013,1.013,0,0,0,.128.472c.047.095.079.157.026.417a2.084,2.084,0,0,1-.646.965,3.311,3.311,0,0,0-.511.839,4.326,4.326,0,0,1-.327.592.572.572,0,0,0-.168.407v1.4a.57.57,0,0,0,.443.559l2.914.642a1.146,1.146,0,0,1,.887,1.117Z" transform="translate(0 -96)" fill="#999"/>
      </g>
    </g>
  </g>
</svg>
