<svg xmlns="http://www.w3.org/2000/svg" width="20" height="20" viewBox="0 0 20 20">
  <g id="Bag" transform="translate(0.5 0.5)">
    <path id="Path_352" data-name="Path 352" d="M7-1C7,2.088,5.592,3,3.505,3S0,2.063,0-1" transform="translate(6 6.5)" fill="none" stroke="#000" stroke-linejoin="round" stroke-width="1.5"/>
    <g id="Path_353" data-name="Path 353" transform="translate(-0.5 -0.5)" fill="none">
      <path d="M4,0H16a2,2,0,0,1,2,2l2,16a2,2,0,0,1-2,2H2a2,2,0,0,1-2-2L2,2A2,2,0,0,1,4,0Z" stroke="none"/>
      <path d="M 4 1.5 C 3.724300384521484 1.5 3.5 1.724300384521484 3.5 2 L 3.5 2.093389511108398 L 3.488420486450195 2.186050415039063 L 1.503875732421875 18.06240653991699 C 1.534690856933594 18.30875778198242 1.74543571472168 18.5 2 18.5 L 18 18.5 C 18.25456428527832 18.5 18.46530914306641 18.30875778198242 18.49612426757813 18.06240653991699 L 16.5115795135498 2.186050415039063 L 16.5 2.093389511108398 L 16.5 2 C 16.5 1.724300384521484 16.27569961547852 1.5 16 1.5 L 4 1.5 M 4 0 L 16 0 C 17.10457038879395 0 18 0.8954296112060547 18 2 L 20 18 C 20 19.10457038879395 19.10457038879395 20 18 20 L 2 20 C 0.8954296112060547 20 0 19.10457038879395 0 18 L 2 2 C 2 0.8954296112060547 2.895429611206055 0 4 0 Z" stroke="none" fill="#000"/>
    </g>
  </g>
</svg>
