<svg xmlns="http://www.w3.org/2000/svg" width="18.001" height="20.499" viewBox="0 0 18.001 20.499">
  <g id="Btn_Alarm" data-name="Btn Alarm" transform="translate(0 -0.001)" fill="none">
    <path d="M6.3,20.5V19h5.4v1.5ZM0,18a8.352,8.352,0,0,1,2.478-5.948V6.522a6.521,6.521,0,1,1,13.043,0V12.05A8.352,8.352,0,0,1,18,18Z" stroke="none"/>
    <path d="M 16.33801460266113 16.50090026855469 C 16.05611801147461 15.22620677947998 15.41479301452637 14.05731391906738 14.46454048156738 13.11544036865234 L 14.02050018310547 12.6753101348877 L 14.02050018310547 6.522300243377686 C 14.02050018310547 3.753490209579468 11.76791000366211 1.500900268554688 8.999099731445312 1.500900268554688 C 6.230289936065674 1.500900268554688 3.977700233459473 3.753490209579468 3.977700233459473 6.522300243377686 L 3.977700233459473 12.67776012420654 L 3.53397011756897 13.11783981323242 C 2.584991693496704 14.05899715423584 1.944478988647461 15.22704029083252 1.662839889526367 16.50090026855469 L 16.33801460266113 16.50090026855469 M 11.70090007781982 20.50020027160645 L 6.300899982452393 20.50020027160645 L 6.300899982452393 18.99990081787109 L 11.70090007781982 18.99990081787109 L 11.70090007781982 20.50020027160645 Z M 18.00090026855469 18.00090026855469 L 1.342773430224042e-07 18.00090026855469 C 1.342773430224042e-07 15.67530059814453 0.9477001428604126 13.57019996643066 2.477700233459473 12.05280017852783 L 2.477700233459473 6.522300243377686 C 2.477700233459473 2.9205002784729 5.397300243377686 0.0009002700680866838 8.999099731445312 0.0009002700680866838 C 12.6008996963501 0.0009002700680866838 15.52050018310547 2.9205002784729 15.52050018310547 6.522300243377686 L 15.52050018310547 12.05010032653809 C 17.05229949951172 13.56840038299561 18.00090026855469 15.67350006103516 18.00090026855469 18.00090026855469 Z" stroke="none" fill="#000"/>
  </g>
</svg>
