<svg xmlns="http://www.w3.org/2000/svg" width="20" height="20" viewBox="0 0 20 20">
  <g id="Btn_Setting" data-name="Btn Setting" transform="translate(13514.002 7427)">
    <path d="M -13506.1669921875 -7407.1806640625 L -13506.826171875 -7407.3876953125 C -13509.095703125 -7408.10302734375 -13510.3505859375 -7409.34326171875 -13510.953125 -7409.939453125 C -13511.0283203125 -7410.013671875 -13511.091796875 -7410.07568359375 -13511.1455078125 -7410.12548828125 L -13510.7822265625 -7410.734375 C -13510.369140625 -7411.42724609375 -13510.3525390625 -7412.28662109375 -13510.7412109375 -7412.9765625 C -13511.111328125 -7413.63623046875 -13511.865234375 -7414.06298828125 -13512.6630859375 -7414.06298828125 C -13512.685546875 -7414.06298828125 -13512.708984375 -7414.06298828125 -13512.732421875 -7414.06201171875 L -13513.423828125 -7414.03955078125 C -13513.4443359375 -7414.13232421875 -13513.46875 -7414.23583984375 -13513.4951171875 -7414.34912109375 C -13513.63671875 -7414.9580078125 -13513.8515625 -7415.87744140625 -13513.8515625 -7417 C -13513.8515625 -7418.1201171875 -13513.6376953125 -7419.0380859375 -13513.49609375 -7419.6455078125 C -13513.46875 -7419.76123046875 -13513.4443359375 -7419.86669921875 -13513.423828125 -7419.9609375 L -13512.732421875 -7419.9384765625 C -13512.708984375 -7419.9375 -13512.685546875 -7419.9375 -13512.6630859375 -7419.9375 C -13511.865234375 -7419.9375 -13511.111328125 -7420.3642578125 -13510.7412109375 -7421.0244140625 C -13510.3525390625 -7421.7138671875 -13510.369140625 -7422.5732421875 -13510.7822265625 -7423.26611328125 L -13511.1455078125 -7423.87255859375 C -13511.0947265625 -7423.919921875 -13511.037109375 -7423.97802734375 -13510.966796875 -7424.04736328125 C -13510.365234375 -7424.6455078125 -13509.11328125 -7425.890625 -13506.826171875 -7426.61328125 L -13506.1669921875 -7426.8203125 L -13505.833984375 -7426.197265625 C -13505.455078125 -7425.48681640625 -13504.7392578125 -7425.04541015625 -13503.966796875 -7425.04541015625 C -13503.1943359375 -7425.04541015625 -13502.478515625 -7425.48681640625 -13502.0986328125 -7426.197265625 L -13501.765625 -7426.81982421875 L -13501.1103515625 -7426.61328125 C -13498.8251953125 -7425.892578125 -13497.5732421875 -7424.64697265625 -13496.970703125 -7424.04833984375 C -13496.900390625 -7423.978515625 -13496.841796875 -7423.919921875 -13496.791015625 -7423.8720703125 L -13497.150390625 -7423.26611328125 C -13497.5634765625 -7422.57421875 -13497.580078125 -7421.71533203125 -13497.1943359375 -7421.0244140625 C -13496.818359375 -7420.35400390625 -13496.1064453125 -7419.9375 -13495.3359375 -7419.9375 C -13495.3134765625 -7419.9375 -13495.291015625 -7419.9375 -13495.267578125 -7419.9384765625 L -13494.576171875 -7419.9609375 C -13494.5576171875 -7419.87109375 -13494.5341796875 -7419.77197265625 -13494.5087890625 -7419.66259765625 C -13494.3662109375 -7419.05224609375 -13494.15234375 -7418.1298828125 -13494.15234375 -7417 C -13494.15234375 -7415.8740234375 -13494.3662109375 -7414.95361328125 -13494.5078125 -7414.3447265625 C -13494.533203125 -7414.23291015625 -13494.556640625 -7414.13134765625 -13494.5771484375 -7414.03955078125 L -13495.267578125 -7414.06201171875 C -13495.2900390625 -7414.06298828125 -13495.3134765625 -7414.06298828125 -13495.3359375 -7414.06298828125 C -13496.1044921875 -7414.06298828125 -13496.81640625 -7413.646484375 -13497.1943359375 -7412.9765625 C -13497.580078125 -7412.28515625 -13497.5634765625 -7411.42626953125 -13497.150390625 -7410.734375 L -13496.791015625 -7410.12548828125 C -13496.8427734375 -7410.0771484375 -13496.9033203125 -7410.017578125 -13496.974609375 -7409.94580078125 C -13497.5771484375 -7409.34912109375 -13498.8291015625 -7408.10791015625 -13501.1103515625 -7407.3876953125 L -13501.765625 -7407.18115234375 L -13502.0986328125 -7407.80029296875 C -13502.4765625 -7408.51025390625 -13503.1923828125 -7408.95166015625 -13503.966796875 -7408.95166015625 C -13504.7412109375 -7408.95166015625 -13505.45703125 -7408.51025390625 -13505.8349609375 -7407.7998046875 L -13506.1669921875 -7407.1806640625 Z M -13503.966796875 -7410.7041015625 C -13502.869140625 -7410.7041015625 -13501.8212890625 -7410.2109375 -13501.0927734375 -7409.35107421875 L -13501.0224609375 -7409.26806640625 L -13500.921875 -7409.3095703125 C -13500.2236328125 -7409.59619140625 -13499.578125 -7409.97412109375 -13499.001953125 -7410.43310546875 L -13498.919921875 -7410.49853515625 L -13498.953125 -7410.59814453125 C -13499.3203125 -7411.68212890625 -13499.212890625 -7412.8681640625 -13498.6591796875 -7413.8515625 C -13498.10546875 -7414.841796875 -13497.154296875 -7415.53173828125 -13496.0498046875 -7415.74462890625 L -13495.9453125 -7415.76513671875 L -13495.9296875 -7415.8701171875 C -13495.873046875 -7416.25146484375 -13495.8447265625 -7416.62109375 -13495.8447265625 -7417 C -13495.8447265625 -7417.3798828125 -13495.873046875 -7417.74951171875 -13495.9296875 -7418.130859375 L -13495.9453125 -7418.23583984375 L -13496.0498046875 -7418.25634765625 C -13497.1533203125 -7418.46875 -13498.1044921875 -7419.15869140625 -13498.6591796875 -7420.1484375 C -13499.2119140625 -7421.13134765625 -13499.3193359375 -7422.3173828125 -13498.953125 -7423.40234375 L -13498.919921875 -7423.501953125 L -13499.001953125 -7423.5673828125 C -13499.578125 -7424.0263671875 -13500.224609375 -7424.404296875 -13500.921875 -7424.69091796875 L -13501.0224609375 -7424.732421875 L -13501.0927734375 -7424.6494140625 C -13501.822265625 -7423.7900390625 -13502.869140625 -7423.296875 -13503.966796875 -7423.296875 C -13505.0654296875 -7423.296875 -13506.11328125 -7423.7900390625 -13506.8427734375 -7424.6494140625 L -13506.9130859375 -7424.732421875 L -13507.013671875 -7424.69091796875 C -13507.70703125 -7424.40625 -13508.3525390625 -7424.0283203125 -13508.9326171875 -7423.56787109375 L -13509.0146484375 -7423.50244140625 L -13508.9814453125 -7423.40234375 C -13508.6162109375 -7422.3154296875 -13508.724609375 -7421.1298828125 -13509.27734375 -7420.14892578125 C -13509.8212890625 -7419.17578125 -13510.8203125 -7418.46875 -13511.94921875 -7418.25634765625 L -13512.0537109375 -7418.23681640625 L -13512.0703125 -7418.13134765625 C -13512.126953125 -7417.75634765625 -13512.1552734375 -7417.38623046875 -13512.1552734375 -7417 C -13512.1552734375 -7416.61474609375 -13512.126953125 -7416.24462890625 -13512.0703125 -7415.86962890625 L -13512.0537109375 -7415.76416015625 L -13511.94921875 -7415.74462890625 C -13510.8193359375 -7415.53173828125 -13509.8212890625 -7414.82421875 -13509.27734375 -7413.85205078125 C -13508.724609375 -7412.87109375 -13508.6162109375 -7411.68505859375 -13508.9814453125 -7410.59814453125 L -13509.0146484375 -7410.498046875 L -13508.9326171875 -7410.4326171875 C -13508.3525390625 -7409.97216796875 -13507.70703125 -7409.59423828125 -13507.013671875 -7409.3095703125 L -13506.9130859375 -7409.26806640625 L -13506.8427734375 -7409.35107421875 C -13506.1142578125 -7410.2109375 -13505.0654296875 -7410.7041015625 -13503.966796875 -7410.7041015625 Z M -13503.966796875 -7413.052734375 C -13506.083984375 -7413.052734375 -13507.8056640625 -7414.82373046875 -13507.8056640625 -7417 C -13507.8056640625 -7419.1767578125 -13506.083984375 -7420.94775390625 -13503.966796875 -7420.94775390625 C -13501.8515625 -7420.94775390625 -13500.130859375 -7419.1767578125 -13500.130859375 -7417 C -13500.130859375 -7414.82373046875 -13501.8515625 -7413.052734375 -13503.966796875 -7413.052734375 Z M -13503.966796875 -7419.19921875 C -13505.1484375 -7419.19921875 -13506.109375 -7418.212890625 -13506.109375 -7417 C -13506.109375 -7415.78759765625 -13505.1484375 -7414.8017578125 -13503.966796875 -7414.8017578125 C -13502.78515625 -7414.8017578125 -13501.8232421875 -7415.78759765625 -13501.8232421875 -7417 C -13501.8232421875 -7418.212890625 -13502.78515625 -7419.19921875 -13503.966796875 -7419.19921875 Z" stroke="none"/>
    <path d="M -13506.240234375 -7407.36083984375 L -13505.966796875 -7407.8701171875 C -13505.5634765625 -7408.6298828125 -13504.796875 -7409.1015625 -13503.966796875 -7409.1015625 C -13503.13671875 -7409.1015625 -13502.3701171875 -7408.6298828125 -13501.9658203125 -7407.87158203125 L -13501.6923828125 -7407.361328125 L -13501.1552734375 -7407.53076171875 C -13498.9091796875 -7408.23974609375 -13497.673828125 -7409.46435546875 -13497.080078125 -7410.052734375 C -13497.044921875 -7410.08837890625 -13497.0107421875 -7410.12109375 -13496.98046875 -7410.1513671875 L -13497.279296875 -7410.6572265625 C -13497.7197265625 -7411.3955078125 -13497.7373046875 -7412.3115234375 -13497.3251953125 -7413.05029296875 C -13496.9208984375 -7413.767578125 -13496.158203125 -7414.212890625 -13495.3359375 -7414.212890625 C -13495.3115234375 -7414.212890625 -13495.287109375 -7414.212890625 -13495.2626953125 -7414.2119140625 L -13494.6962890625 -7414.19384765625 C -13494.6826171875 -7414.251953125 -13494.6689453125 -7414.3134765625 -13494.6533203125 -7414.37890625 C -13494.513671875 -7414.98095703125 -13494.3017578125 -7415.89111328125 -13494.3017578125 -7417 C -13494.3017578125 -7418.1123046875 -13494.5146484375 -7419.02490234375 -13494.654296875 -7419.62841796875 C -13494.6689453125 -7419.69091796875 -13494.68359375 -7419.75048828125 -13494.6962890625 -7419.806640625 L -13495.2626953125 -7419.78857421875 C -13495.287109375 -7419.78759765625 -13495.3115234375 -7419.78759765625 -13495.3359375 -7419.78759765625 C -13496.1611328125 -7419.78759765625 -13496.9228515625 -7420.2333984375 -13497.3251953125 -7420.951171875 C -13497.7373046875 -7421.68896484375 -13497.7197265625 -7422.60498046875 -13497.279296875 -7423.3427734375 L -13496.98046875 -7423.8466796875 C -13497.009765625 -7423.8759765625 -13497.0419921875 -7423.90771484375 -13497.076171875 -7423.9423828125 C -13497.669921875 -7424.5322265625 -13498.9052734375 -7425.7607421875 -13501.1552734375 -7426.47021484375 L -13501.69140625 -7426.6396484375 L -13501.9658203125 -7426.12646484375 C -13502.3720703125 -7425.3671875 -13503.138671875 -7424.8955078125 -13503.966796875 -7424.8955078125 C -13504.794921875 -7424.8955078125 -13505.5615234375 -7425.3671875 -13505.966796875 -7426.12646484375 L -13506.2412109375 -7426.6396484375 L -13506.7802734375 -7426.47021484375 C -13509.0341796875 -7425.75830078125 -13510.2685546875 -7424.53076171875 -13510.861328125 -7423.94091796875 C -13510.8955078125 -7423.9072265625 -13510.9267578125 -7423.8759765625 -13510.955078125 -7423.84716796875 L -13510.6533203125 -7423.34326171875 C -13510.2119140625 -7422.60400390625 -13510.1962890625 -7421.68701171875 -13510.6103515625 -7420.951171875 C -13511.0068359375 -7420.244140625 -13511.8115234375 -7419.78759765625 -13512.6630859375 -7419.78759765625 C -13512.6875 -7419.78759765625 -13512.7119140625 -7419.78759765625 -13512.7373046875 -7419.78857421875 L -13513.3046875 -7419.806640625 C -13513.318359375 -7419.74560546875 -13513.333984375 -7419.68017578125 -13513.349609375 -7419.611328125 C -13513.490234375 -7419.0107421875 -13513.7021484375 -7418.1025390625 -13513.7021484375 -7417 C -13513.7021484375 -7415.89501953125 -13513.4892578125 -7414.9853515625 -13513.3486328125 -7414.38330078125 C -13513.3330078125 -7414.31640625 -13513.318359375 -7414.25341796875 -13513.3046875 -7414.19384765625 L -13512.736328125 -7414.2119140625 C -13512.7119140625 -7414.212890625 -13512.6875 -7414.212890625 -13512.6630859375 -7414.212890625 C -13511.8115234375 -7414.212890625 -13511.005859375 -7413.75634765625 -13510.6103515625 -7413.0498046875 C -13510.1962890625 -7412.3134765625 -13510.2119140625 -7411.396484375 -13510.6533203125 -7410.6572265625 L -13510.955078125 -7410.1513671875 C -13510.921875 -7410.119140625 -13510.88671875 -7410.083984375 -13510.84765625 -7410.0458984375 C -13510.25390625 -7409.45849609375 -13509.0166015625 -7408.2353515625 -13506.78125 -7407.53076171875 L -13506.240234375 -7407.36083984375 M -13503.966796875 -7410.55419921875 C -13505.021484375 -7410.55419921875 -13506.0283203125 -7410.080078125 -13506.728515625 -7409.25439453125 L -13506.869140625 -7409.087890625 L -13507.0712890625 -7409.1708984375 C -13507.77734375 -7409.4609375 -13508.4345703125 -7409.845703125 -13509.025390625 -7410.3154296875 L -13509.1904296875 -7410.4462890625 L -13509.123046875 -7410.6455078125 C -13508.7724609375 -7411.69287109375 -13508.8759765625 -7412.83447265625 -13509.408203125 -7413.77880859375 C -13509.9306640625 -7414.712890625 -13510.890625 -7415.392578125 -13511.9775390625 -7415.59716796875 L -13512.1865234375 -7415.63671875 L -13512.21875 -7415.84716796875 C -13512.2763671875 -7416.22998046875 -13512.3046875 -7416.60693359375 -13512.3046875 -7417 C -13512.3046875 -7417.3935546875 -13512.2763671875 -7417.77099609375 -13512.21875 -7418.15380859375 L -13512.1865234375 -7418.3642578125 L -13511.9775390625 -7418.40380859375 C -13510.890625 -7418.60791015625 -13509.9306640625 -7419.28759765625 -13509.408203125 -7420.22265625 C -13508.8759765625 -7421.16650390625 -13508.7724609375 -7422.30810546875 -13509.123046875 -7423.35498046875 L -13509.1904296875 -7423.55419921875 L -13509.025390625 -7423.68505859375 C -13508.4345703125 -7424.15478515625 -13507.77734375 -7424.5400390625 -13507.0712890625 -7424.82958984375 L -13506.869140625 -7424.91259765625 L -13506.728515625 -7424.74609375 C -13506.0283203125 -7423.92041015625 -13505.021484375 -7423.44677734375 -13503.966796875 -7423.44677734375 C -13502.9130859375 -7423.44677734375 -13501.9072265625 -7423.92041015625 -13501.20703125 -7424.74609375 L -13501.06640625 -7424.91259765625 L -13500.8642578125 -7424.82958984375 C -13500.154296875 -7424.53759765625 -13499.49609375 -7424.15234375 -13498.9091796875 -7423.68505859375 L -13498.744140625 -7423.5537109375 L -13498.8115234375 -7423.3544921875 C -13499.1640625 -7422.3095703125 -13499.060546875 -7421.16796875 -13498.5283203125 -7420.2216796875 C -13497.9951171875 -7419.2705078125 -13497.08203125 -7418.60791015625 -13496.021484375 -7418.4033203125 L -13495.8125 -7418.36328125 L -13495.78125 -7418.1533203125 C -13495.7236328125 -7417.7646484375 -13495.6953125 -7417.38720703125 -13495.6953125 -7417 C -13495.6953125 -7416.61328125 -13495.7236328125 -7416.236328125 -13495.78125 -7415.84765625 L -13495.8125 -7415.6376953125 L -13496.021484375 -7415.59765625 C -13497.08203125 -7415.392578125 -13497.99609375 -7414.7294921875 -13498.5283203125 -7413.7783203125 C -13499.0615234375 -7412.83154296875 -13499.1650390625 -7411.68994140625 -13498.8115234375 -7410.646484375 L -13498.744140625 -7410.44677734375 L -13498.9091796875 -7410.3154296875 C -13499.49609375 -7409.84814453125 -13500.154296875 -7409.462890625 -13500.8642578125 -7409.1708984375 L -13501.06640625 -7409.087890625 L -13501.20703125 -7409.25439453125 C -13501.9072265625 -7410.080078125 -13502.9130859375 -7410.55419921875 -13503.966796875 -7410.55419921875 M -13503.966796875 -7413.20263671875 C -13501.9345703125 -7413.20263671875 -13500.2802734375 -7414.90625 -13500.2802734375 -7417 C -13500.2802734375 -7419.09423828125 -13501.9345703125 -7420.7978515625 -13503.966796875 -7420.7978515625 C -13506.0009765625 -7420.7978515625 -13507.65625 -7419.09423828125 -13507.65625 -7417 C -13507.65625 -7414.90625 -13506.0009765625 -7413.20263671875 -13503.966796875 -7413.20263671875 M -13503.966796875 -7419.34912109375 C -13502.7021484375 -7419.34912109375 -13501.673828125 -7418.29541015625 -13501.673828125 -7417 C -13501.673828125 -7415.705078125 -13502.7021484375 -7414.65185546875 -13503.966796875 -7414.65185546875 C -13505.23046875 -7414.65185546875 -13506.2587890625 -7415.705078125 -13506.2587890625 -7417 C -13506.2587890625 -7418.29541015625 -13505.23046875 -7419.34912109375 -13503.966796875 -7419.34912109375 M -13501.8388671875 -7407.00048828125 L -13502.23046875 -7407.7294921875 C -13502.583984375 -7408.39306640625 -13503.248046875 -7408.8017578125 -13503.966796875 -7408.8017578125 C -13504.685546875 -7408.8017578125 -13505.349609375 -7408.39306640625 -13505.7021484375 -7407.7294921875 L -13506.09375 -7407.00048828125 L -13506.87109375 -7407.24462890625 C -13509.6435546875 -7408.11865234375 -13510.9462890625 -7409.78515625 -13511.337890625 -7410.09521484375 L -13510.9111328125 -7410.81103515625 C -13510.525390625 -7411.45751953125 -13510.509765625 -7412.25927734375 -13510.8720703125 -7412.90283203125 C -13511.21875 -7413.521484375 -13511.916015625 -7413.9130859375 -13512.6630859375 -7413.9130859375 C -13512.6845703125 -7413.9130859375 -13512.7060546875 -7413.91259765625 -13512.7275390625 -7413.912109375 L -13513.5458984375 -7413.8857421875 C -13513.6513671875 -7414.443359375 -13514.001953125 -7415.5517578125 -13514.001953125 -7417 C -13514.001953125 -7418.44873046875 -13513.6513671875 -7419.55419921875 -13513.5458984375 -7420.11474609375 L -13512.7275390625 -7420.08837890625 C -13512.7060546875 -7420.087890625 -13512.6845703125 -7420.08740234375 -13512.6630859375 -7420.08740234375 C -13511.916015625 -7420.08740234375 -13511.21875 -7420.4794921875 -13510.8720703125 -7421.09765625 C -13510.509765625 -7421.7412109375 -13510.525390625 -7422.54296875 -13510.9111328125 -7423.189453125 L -13511.337890625 -7423.90185546875 C -13510.9560546875 -7424.208984375 -13509.6494140625 -7425.87841796875 -13506.87109375 -7426.75634765625 L -13506.09375 -7427.00048828125 L -13505.7021484375 -7426.26806640625 C -13505.349609375 -7425.607421875 -13504.685546875 -7425.1953125 -13503.966796875 -7425.1953125 C -13503.248046875 -7425.1953125 -13502.583984375 -7425.607421875 -13502.23046875 -7426.26806640625 L -13501.8388671875 -7427.00048828125 L -13501.0654296875 -7426.75634765625 C -13498.2919921875 -7425.8818359375 -13496.986328125 -7424.21533203125 -13496.5986328125 -7423.90185546875 L -13497.021484375 -7423.189453125 C -13497.4072265625 -7422.54296875 -13497.4228515625 -7421.7412109375 -13497.0634765625 -7421.09765625 C -13496.7119140625 -7420.4697265625 -13496.0537109375 -7420.08740234375 -13495.3359375 -7420.08740234375 C -13495.3154296875 -7420.08740234375 -13495.2939453125 -7420.087890625 -13495.2724609375 -7420.08837890625 L -13494.455078125 -7420.11474609375 C -13494.3486328125 -7419.55712890625 -13494.001953125 -7418.44873046875 -13494.001953125 -7417 C -13494.001953125 -7415.5517578125 -13494.3486328125 -7414.44677734375 -13494.455078125 -7413.8857421875 L -13495.2724609375 -7413.912109375 C -13495.2939453125 -7413.91259765625 -13495.314453125 -7413.9130859375 -13495.3359375 -7413.9130859375 C -13496.0537109375 -7413.9130859375 -13496.7119140625 -7413.52734375 -13497.0634765625 -7412.90283203125 C -13497.4228515625 -7412.25927734375 -13497.4072265625 -7411.45751953125 -13497.021484375 -7410.81103515625 L -13496.5986328125 -7410.09521484375 C -13496.98046875 -7409.7919921875 -13498.2861328125 -7408.1220703125 -13501.0654296875 -7407.24462890625 L -13501.8388671875 -7407.00048828125 Z M -13503.966796875 -7410.85400390625 C -13502.810546875 -7410.85400390625 -13501.7255859375 -7410.32958984375 -13500.978515625 -7409.4482421875 C -13500.2958984375 -7409.72900390625 -13499.6630859375 -7410.0986328125 -13499.095703125 -7410.55029296875 C -13499.470703125 -7411.65869140625 -13499.37109375 -7412.89306640625 -13498.7900390625 -7413.92529296875 C -13498.2060546875 -7414.96826171875 -13497.2080078125 -7415.673828125 -13496.078125 -7415.89208984375 C -13496.0205078125 -7416.27783203125 -13495.9951171875 -7416.64404296875 -13495.9951171875 -7417 C -13495.9951171875 -7417.35693359375 -13496.0205078125 -7417.72314453125 -13496.078125 -7418.10888671875 C -13497.2080078125 -7418.32666015625 -13498.2060546875 -7419.03271484375 -13498.7900390625 -7420.0751953125 C -13499.37109375 -7421.10791015625 -13499.470703125 -7422.33837890625 -13499.095703125 -7423.4501953125 C -13499.6630859375 -7423.90185546875 -13500.2958984375 -7424.271484375 -13500.978515625 -7424.55224609375 C -13501.7255859375 -7423.67138671875 -13502.810546875 -7423.14697265625 -13503.966796875 -7423.14697265625 C -13505.1220703125 -7423.14697265625 -13506.2099609375 -7423.67138671875 -13506.95703125 -7424.55224609375 C -13507.640625 -7424.271484375 -13508.2705078125 -7423.90185546875 -13508.8388671875 -7423.4501953125 C -13508.4658203125 -7422.33837890625 -13508.564453125 -7421.10791015625 -13509.146484375 -7420.0751953125 C -13509.7236328125 -7419.04248046875 -13510.7626953125 -7418.32666015625 -13511.921875 -7418.10888671875 C -13511.98046875 -7417.72314453125 -13512.0048828125 -7417.35693359375 -13512.0048828125 -7417 C -13512.0048828125 -7416.64404296875 -13511.98046875 -7416.27783203125 -13511.921875 -7415.89208984375 C -13510.7626953125 -7415.673828125 -13509.7236328125 -7414.9580078125 -13509.146484375 -7413.92529296875 C -13508.564453125 -7412.89306640625 -13508.4658203125 -7411.662109375 -13508.8388671875 -7410.55029296875 C -13508.2705078125 -7410.0986328125 -13507.640625 -7409.72900390625 -13506.95703125 -7409.4482421875 C -13506.2099609375 -7410.32958984375 -13505.1220703125 -7410.85400390625 -13503.966796875 -7410.85400390625 Z M -13503.966796875 -7412.90283203125 C -13506.1650390625 -7412.90283203125 -13507.9560546875 -7414.740234375 -13507.9560546875 -7417 C -13507.9560546875 -7419.26025390625 -13506.1650390625 -7421.09765625 -13503.966796875 -7421.09765625 C -13501.7685546875 -7421.09765625 -13499.98046875 -7419.26025390625 -13499.98046875 -7417 C -13499.98046875 -7414.740234375 -13501.7685546875 -7412.90283203125 -13503.966796875 -7412.90283203125 Z M -13503.966796875 -7419.04931640625 C -13505.0673828125 -7419.04931640625 -13505.958984375 -7418.12841796875 -13505.958984375 -7417 C -13505.958984375 -7415.8720703125 -13505.0673828125 -7414.95166015625 -13503.966796875 -7414.95166015625 C -13502.869140625 -7414.95166015625 -13501.9736328125 -7415.8720703125 -13501.9736328125 -7417 C -13501.9736328125 -7418.12841796875 -13502.869140625 -7419.04931640625 -13503.966796875 -7419.04931640625 Z" stroke="none" fill="#fff"/>
  </g>
</svg>
