<svg id="Call_us" data-name="Call us" xmlns="http://www.w3.org/2000/svg" width="18" height="18" viewBox="0 0 18 18">
  <g id="Group_1096" data-name="Group 1096" transform="translate(3.938 3.937)">
    <g id="Group_1095" data-name="Group 1095">
      <path id="Path_509" data-name="Path 509" d="M121.563,118.923a6.2,6.2,0,0,1-2.751-.629.563.563,0,0,0-.754.261l-.651,1.348a8.486,8.486,0,0,1-3.185-3.185l1.348-.652a.563.563,0,0,0,.261-.754,6.187,6.187,0,0,1-.629-2.749.563.563,0,0,0-.562-.562h-2.077a.563.563,0,0,0-.562.563,9.573,9.573,0,0,0,9.563,9.563.563.563,0,0,0,.563-.562v-2.077A.562.562,0,0,0,121.563,118.923Zm-8.418-5.8h.954a7.266,7.266,0,0,0,.493,2.164l-.858.415A8.313,8.313,0,0,1,113.144,113.125ZM121,120.981h0a8.36,8.36,0,0,1-2.581-.588l.415-.86a7.31,7.31,0,0,0,2.166.494Z" transform="translate(-112 -112)" fill="#999"/>
    </g>
  </g>
  <g id="Group_1098" data-name="Group 1098">
    <g id="Group_1097" data-name="Group 1097">
      <path id="Path_510" data-name="Path 510" d="M9,0a9,9,0,1,0,9,9A9.011,9.011,0,0,0,9,0ZM9,16.875A7.875,7.875,0,1,1,16.875,9,7.884,7.884,0,0,1,9,16.875Z" fill="#999"/>
    </g>
  </g>
</svg>
