<svg xmlns="http://www.w3.org/2000/svg" width="18" height="18" viewBox="0 0 18 18">
  <g id="Camera" transform="translate(-181 -104)">
    <circle id="Ellipse_215" data-name="Ellipse 215" cx="9" cy="9" r="9" transform="translate(181 104)" fill="#ec008c"/>
    <g id="Subtraction_5" data-name="Subtraction 5" transform="translate(12911 8438.402)" fill="#ec008c">
      <path d="M -12716.9990234375 -8321.5 L -12724.9990234375 -8321.5 C -12725.2763671875 -8321.5 -12725.501953125 -8321.724609375 -12725.501953125 -8322 L -12725.501953125 -8327.400390625 C -12725.501953125 -8327.67578125 -12725.2763671875 -8327.900390625 -12724.9990234375 -8327.900390625 L -12723.798828125 -8327.900390625 L -12723.435546875 -8327.900390625 L -12723.3232421875 -8328.24609375 L -12722.9814453125 -8329.302734375 L -12719.01953125 -8329.302734375 L -12718.6748046875 -8328.2451171875 L -12718.5625 -8327.900390625 L -12718.19921875 -8327.900390625 L -12716.9990234375 -8327.900390625 C -12716.7236328125 -8327.900390625 -12716.4990234375 -8327.67578125 -12716.4990234375 -8327.400390625 L -12716.4990234375 -8322 C -12716.4990234375 -8321.724609375 -12716.7236328125 -8321.5 -12716.9990234375 -8321.5 Z M -12721.0009765625 -8326.501953125 C -12721.8271484375 -8326.501953125 -12722.5 -8325.8291015625 -12722.5 -8325.001953125 C -12722.5 -8324.1748046875 -12721.8271484375 -8323.501953125 -12721.0009765625 -8323.501953125 C -12720.171875 -8323.501953125 -12719.498046875 -8324.1748046875 -12719.498046875 -8325.001953125 C -12719.498046875 -8325.8291015625 -12720.171875 -8326.501953125 -12721.0009765625 -8326.501953125 Z" stroke="none"/>
      <path d="M -12716.9990234375 -8322 L -12716.9990234375 -8327.400390625 L -12718.9248046875 -8327.400390625 L -12719.3818359375 -8328.802734375 L -12722.6171875 -8328.802734375 L -12723.0712890625 -8327.400390625 L -12725.001953125 -8327.400390625 L -12724.9990234375 -8322 L -12716.9990234375 -8322 M -12721.0009765625 -8327.001953125 C -12719.896484375 -8327.001953125 -12718.998046875 -8326.1044921875 -12718.998046875 -8325.001953125 C -12718.998046875 -8323.8994140625 -12719.896484375 -8323.001953125 -12721.0009765625 -8323.001953125 C -12722.103515625 -8323.001953125 -12723 -8323.8994140625 -12723 -8325.001953125 C -12723 -8326.1044921875 -12722.103515625 -8327.001953125 -12721.0009765625 -8327.001953125 M -12716.9990234375 -8321 L -12724.9990234375 -8321 C -12725.5517578125 -8321 -12726.001953125 -8321.4482421875 -12726.001953125 -8322 L -12726.001953125 -8327.400390625 C -12726.001953125 -8327.9521484375 -12725.5517578125 -8328.400390625 -12724.9990234375 -8328.400390625 L -12723.798828125 -8328.400390625 L -12723.3447265625 -8329.802734375 L -12718.65625 -8329.802734375 L -12718.19921875 -8328.400390625 L -12716.9990234375 -8328.400390625 C -12716.447265625 -8328.400390625 -12715.9990234375 -8327.9521484375 -12715.9990234375 -8327.400390625 L -12715.9990234375 -8322 C -12715.9990234375 -8321.4482421875 -12716.447265625 -8321 -12716.9990234375 -8321 Z M -12721.0009765625 -8326.001953125 C -12721.5517578125 -8326.001953125 -12722 -8325.5537109375 -12722 -8325.001953125 C -12722 -8324.4501953125 -12721.5517578125 -8324.001953125 -12721.0009765625 -8324.001953125 C -12720.4482421875 -8324.001953125 -12719.998046875 -8324.4501953125 -12719.998046875 -8325.001953125 C -12719.998046875 -8325.5537109375 -12720.4482421875 -8326.001953125 -12721.0009765625 -8326.001953125 Z" stroke="none" fill="#fff"/>
    </g>
  </g>
</svg>
