<svg id="Cancel" xmlns="http://www.w3.org/2000/svg" width="42" height="36.072" viewBox="0 0 42 36.072">
  <g id="Path_427" data-name="Path 427" transform="translate(0 -39)">
    <path d="M 11.20829010009766 74.82216644287109 C 5.165870189666748 74.82216644287109 0.25 69.90626525878906 0.25 63.86379241943359 C 0.25 61.99176406860352 0.732509970664978 60.14286422729492 1.645370006561279 58.51696395874023 C 2.530359983444214 56.94069290161133 3.804610013961792 55.5928840637207 5.330359935760498 54.6192626953125 L 5.445879936218262 54.5455436706543 L 5.445879936218262 54.40851211547852 L 5.445879936218262 39.25000381469727 L 41.75 39.25000381469727 L 41.75 63.12261199951172 L 22.40522956848145 63.12261199951172 L 22.14410018920898 63.12261199951172 L 22.15546989440918 63.38349151611328 C 22.16293907165527 63.55498504638672 22.16657066345215 63.71209335327148 22.16657066345215 63.86379241943359 C 22.16657066345215 69.90626525878906 17.25070953369141 74.82216644287109 11.20829010009766 74.82216644287109 Z M 11.20837020874023 55.00345230102539 C 6.322710037231445 55.00345230102539 2.347939968109131 58.97818374633789 2.347939968109131 63.86379241943359 C 2.347939968109131 68.74945068359375 6.322710037231445 72.72422027587891 11.20837020874023 72.72422027587891 C 16.09398078918457 72.72422027587891 20.0687198638916 68.74945068359375 20.0687198638916 63.86379241943359 C 20.0687198638916 58.97818374633789 16.09398078918457 55.00345230102539 11.20837020874023 55.00345230102539 Z M 11.20837020874023 52.90551376342773 C 13.63234043121338 52.90551376342773 15.93097019195557 53.68426132202148 17.85576057434082 55.15757369995117 C 19.71944999694824 56.58411407470703 21.10004043579102 58.60347366333008 21.74320030212402 60.84366226196289 L 21.79516983032227 61.02467346191406 L 21.98348999023438 61.02467346191406 L 39.40206146240234 61.02467346191406 L 39.65206146240234 61.02467346191406 L 39.65206146240234 60.77467346191406 L 39.65206146240234 47.65979385375977 L 39.65206146240234 47.40979385375977 L 39.40206146240234 47.40979385375977 L 7.793819904327393 47.40979385375977 L 7.543819904327393 47.40979385375977 L 7.543819904327393 47.65979385375977 L 7.543819904327393 53.18800354003906 L 7.543819904327393 53.53067398071289 L 7.870130062103271 53.42607498168945 C 8.947690010070801 53.08065414428711 10.07083988189697 52.90551376342773 11.20837020874023 52.90551376342773 Z M 7.543819904327393 41.34794235229492 L 7.543819904327393 41.59794235229492 L 7.543819904327393 45.06185150146484 L 7.543819904327393 45.31185150146484 L 7.793819904327393 45.31185150146484 L 39.40206146240234 45.31185150146484 L 39.65206146240234 45.31185150146484 L 39.65206146240234 45.06185150146484 L 39.65206146240234 41.59794235229492 L 39.65206146240234 41.34794235229492 L 39.40206146240234 41.34794235229492 L 7.793819904327393 41.34794235229492 L 7.543819904327393 41.34794235229492 Z" stroke="none"/>
    <path d="M 5.695880889892578 39.5 L 5.695880889892578 54.68258285522461 L 5.464851379394531 54.83000183105469 C 2.356021881103516 56.8138313293457 0.5 60.19095230102539 0.5 63.86379241943359 C 0.5 69.76841735839844 5.303718566894531 74.57215881347656 11.20829010009766 74.57215881347656 C 17.11285972595215 74.57215881347656 21.91657066345215 69.76841735839844 21.91657066345215 63.86379241943359 C 21.91657066345215 63.71575164794922 21.91301918029785 63.56220245361328 21.90570068359375 63.39437484741211 L 21.88297080993652 62.87261199951172 L 41.5 62.87261199951172 L 41.5 39.5 L 5.695880889892578 39.5 M 39.90206146240234 45.56185150146484 L 7.293811798095703 45.56185150146484 L 7.293811798095703 41.09793090820312 L 39.90206146240234 41.09793090820312 L 39.90206146240234 45.56185150146484 M 39.90206146240234 61.27467346191406 L 21.60684013366699 61.27467346191406 L 21.50289916992188 60.91265487670898 C 20.87443923950195 58.7236328125 19.52522087097168 56.75027465820312 17.70380973815918 55.35609436035156 C 15.82302093505859 53.91646194458008 13.57692909240723 53.15551376342773 11.20837020874023 53.15551376342773 C 10.09678077697754 53.15551376342773 8.999298095703125 53.32664489746094 7.946441650390625 53.66414260864258 L 7.293811798095703 53.87334442138672 L 7.293811798095703 47.1597900390625 L 39.90206146240234 47.1597900390625 L 39.90206146240234 61.27467346191406 M 11.20837020874023 72.97422790527344 C 6.184860229492188 72.97422790527344 2.097938537597656 68.88729858398438 2.097938537597656 63.86379241943359 C 2.097938537597656 58.84033203125 6.184860229492188 54.75345230102539 11.20837020874023 54.75345230102539 C 16.23183059692383 54.75345230102539 20.3187198638916 58.84033203125 20.3187198638916 63.86379241943359 C 20.3187198638916 68.88729858398438 16.23183059692383 72.97422790527344 11.20837020874023 72.97422790527344 M 5.195880889892578 39 L 42 39 L 42 63.37261199951172 L 22.40522956848145 63.37261199951172 C 22.41233062744141 63.53558349609375 22.41657066345215 63.69917297363281 22.41657066345215 63.86379241943359 C 22.41657066345215 70.04411315917969 17.38851928710938 75.07215881347656 11.20829010009766 75.07215881347656 C 5.028060913085938 75.07215881347656 0 70.04411315917969 0 63.86379241943359 C 0 59.89431381225586 2.074371337890625 56.40043258666992 5.195880889892578 54.40851211547852 L 5.195880889892578 39 Z M 39.40206146240234 45.06185150146484 L 39.40206146240234 41.59793090820312 L 7.793811798095703 41.59793090820312 L 7.793811798095703 45.06185150146484 L 39.40206146240234 45.06185150146484 Z M 39.40206146240234 60.77467346191406 L 39.40206146240234 47.6597900390625 L 7.793811798095703 47.6597900390625 L 7.793811798095703 53.18800354003906 C 8.870918273925781 52.84273147583008 10.01807975769043 52.65551376342773 11.20837020874023 52.65551376342773 C 16.31756019592285 52.65551376342773 20.63905906677246 56.09189224243164 21.98348999023438 60.77467346191406 L 39.40206146240234 60.77467346191406 Z M 11.20837020874023 72.47422790527344 C 15.95619010925293 72.47422790527344 19.8187198638916 68.61161804199219 19.8187198638916 63.86379241943359 C 19.8187198638916 59.11597442626953 15.95610046386719 55.25345230102539 11.20837020874023 55.25345230102539 C 6.460639953613281 55.25345230102539 2.597938537597656 59.11606216430664 2.597938537597656 63.86379241943359 C 2.597938537597656 68.61152648925781 6.460559844970703 72.47422790527344 11.20837020874023 72.47422790527344 Z" stroke="none" fill="#fff"/>
  </g>
  <g id="Path_428" data-name="Path 428" transform="translate(-294.878 -241.223)">
    <path d="M 303.2319946289062 270.4244079589844 L 301.7485656738281 268.9409790039062 L 304.4263305664062 266.2632751464844 L 304.6031188964844 266.0864868164062 L 304.4263305664062 265.9096984863281 L 301.7485656738281 263.2319946289062 L 303.2319946289062 261.7485046386719 L 305.90966796875 264.4263000488281 L 306.0864562988281 264.6030883789062 L 306.2632446289062 264.4263000488281 L 308.9410095214844 261.7485046386719 L 310.4244384765625 263.2319946289062 L 307.7466735839844 265.9096984863281 L 307.5699157714844 266.0864868164062 L 307.7466735839844 266.2632751464844 L 310.4244384765625 268.9409790039062 L 308.9410095214844 270.4244079589844 L 306.2632446289062 267.7466125488281 L 306.0864562988281 267.56982421875 L 305.90966796875 267.7466125488281 L 303.2319946289062 270.4244079589844 Z" stroke="none"/>
    <path d="M 308.9410095214844 262.1020812988281 L 306.0864562988281 264.9566345214844 L 303.2319946289062 262.1020812988281 L 302.1021118164062 263.2319946289062 L 304.9566650390625 266.0864868164062 L 302.1021118164062 268.9409790039062 L 303.2319946289062 270.0708312988281 L 306.0864562988281 267.2162780761719 L 308.9410095214844 270.0708618164062 L 310.0708923339844 268.9409790039062 L 307.2163696289062 266.0864868164062 L 310.0708923339844 263.2319946289062 L 308.9410095214844 262.1020812988281 M 303.2319946289062 261.3949584960938 L 306.0864562988281 264.24951171875 L 308.9410095214844 261.3949584960938 L 310.7779846191406 263.2319946289062 L 307.9234619140625 266.0864868164062 L 310.7779846191406 268.9409790039062 L 308.9410095214844 270.7779541015625 L 306.0864562988281 267.9234008789062 L 303.2319946289062 270.7779541015625 L 301.39501953125 268.9409790039062 L 304.2495422363281 266.0864868164062 L 301.39501953125 263.2319946289062 L 303.2319946289062 261.3949584960938 Z" stroke="none" fill="#fff"/>
  </g>
  <line id="Line_524" data-name="Line 524" x1="9" transform="translate(27.5 18.536)" fill="none" stroke="#000" stroke-width="1.5"/>
</svg>
