<svg xmlns="http://www.w3.org/2000/svg" width="42" height="30.24" viewBox="0 0 42 30.24">
  <g id="Card" transform="translate(13840.002 7588.989)">
    <path d="M -13798.251953125 -7558.99951171875 L -13829.822265625 -7558.99951171875 L -13829.822265625 -7574.37890625 L -13829.822265625 -7574.60302734375 L -13830.044921875 -7574.62744140625 C -13830.6435546875 -7574.69287109375 -13831.240234375 -7574.7978515625 -13831.818359375 -7574.93896484375 C -13835.7255859375 -7575.88720703125 -13838.3095703125 -7577.2431640625 -13839.4130859375 -7577.822265625 C -13839.509765625 -7577.873046875 -13839.59375 -7577.91748046875 -13839.66796875 -7577.95556640625 L -13835.4853515625 -7586.517578125 L -13834.6142578125 -7586.06982421875 C -13834.263671875 -7585.890625 -13833.8701171875 -7585.80322265625 -13833.41015625 -7585.80322265625 C -13832.3505859375 -7585.80322265625 -13831.076171875 -7586.26416015625 -13829.4619140625 -7586.8466796875 C -13827.3798828125 -7587.5986328125 -13824.7890625 -7588.53466796875 -13821.65625 -7588.7109375 C -13821.3125 -7588.7294921875 -13820.9638671875 -7588.7392578125 -13820.6201171875 -7588.7392578125 C -13817.2978515625 -7588.7392578125 -13813.98046875 -7587.8662109375 -13810.4775390625 -7586.0693359375 L -13805.193359375 -7583.3642578125 L -13805.6328125 -7582.45751953125 C -13805.77734375 -7582.16259765625 -13805.9541015625 -7581.86474609375 -13806.1591796875 -7581.572265625 L -13806.4365234375 -7581.1787109375 L -13805.955078125 -7581.1787109375 L -13798.251953125 -7581.1787109375 L -13798.251953125 -7558.99951171875 Z M -13827.8642578125 -7574.11865234375 L -13827.8642578125 -7573.86865234375 L -13827.8642578125 -7561.27197265625 L -13827.8642578125 -7561.02197265625 L -13827.6142578125 -7561.02197265625 L -13800.4609375 -7561.02197265625 L -13800.2109375 -7561.02197265625 L -13800.2109375 -7561.27197265625 L -13800.2109375 -7573.86865234375 L -13800.2109375 -7574.11865234375 L -13800.4609375 -7574.11865234375 L -13827.6142578125 -7574.11865234375 L -13827.8642578125 -7574.11865234375 Z M -13817.4404296875 -7580.353515625 L -13817.533203125 -7580.2333984375 C -13818.66796875 -7578.75830078125 -13820.001953125 -7577.5361328125 -13821.4990234375 -7576.6005859375 L -13822.2373046875 -7576.138671875 L -13821.3662109375 -7576.138671875 L -13800.4609375 -7576.138671875 L -13800.2109375 -7576.138671875 L -13800.2109375 -7576.388671875 L -13800.2109375 -7578.90966796875 L -13800.2109375 -7579.15966796875 L -13800.4609375 -7579.15966796875 L -13809.533203125 -7579.15966796875 L -13809.5673828125 -7579.15966796875 L -13809.6005859375 -7579.150390625 C -13810.1396484375 -7579 -13810.6923828125 -7578.923828125 -13811.2451171875 -7578.923828125 C -13811.923828125 -7578.923828125 -13812.595703125 -7579.0380859375 -13813.240234375 -7579.26318359375 C -13814.5966796875 -7579.736328125 -13815.9599609375 -7580.09423828125 -13817.2919921875 -7580.3271484375 L -13817.4404296875 -7580.353515625 Z M -13834.564453125 -7583.9111328125 L -13834.6494140625 -7583.73779296875 L -13836.91015625 -7579.10400390625 L -13837.0224609375 -7578.873046875 L -13836.7890625 -7578.7666015625 C -13835.0927734375 -7577.99267578125 -13833.2685546875 -7577.36669921875 -13831.3681640625 -7576.9052734375 C -13830.431640625 -7576.6767578125 -13829.482421875 -7576.56103515625 -13828.5478515625 -7576.56103515625 C -13825.443359375 -7576.560546875 -13822.466796875 -7577.859375 -13820.166015625 -7580.216796875 L -13819.76953125 -7580.623046875 L -13820.3369140625 -7580.6416015625 C -13820.5380859375 -7580.64794921875 -13820.7421875 -7580.6513671875 -13820.94140625 -7580.6513671875 C -13821.5390625 -7580.6513671875 -13822.1318359375 -7580.6220703125 -13822.7041015625 -7580.564453125 C -13824.3681640625 -7580.3916015625 -13825.45703125 -7580.02685546875 -13825.9267578125 -7579.8408203125 L -13826.779296875 -7581.66943359375 C -13826.1044921875 -7581.95166015625 -13824.064453125 -7582.67529296875 -13820.896484375 -7582.67529296875 C -13818.25 -7582.67529296875 -13815.4638671875 -7582.1708984375 -13812.61328125 -7581.1767578125 C -13812.16796875 -7581.02197265625 -13811.7041015625 -7580.943359375 -13811.2353515625 -7580.943359375 C -13810.0830078125 -7580.943359375 -13808.9599609375 -7581.423828125 -13808.154296875 -7582.26171875 L -13807.9208984375 -7582.50390625 L -13808.2197265625 -7582.65771484375 L -13811.3486328125 -7584.26171875 C -13814.5908203125 -7585.921875 -13817.6220703125 -7586.72900390625 -13820.6142578125 -7586.72900390625 C -13823.859375 -7586.72900390625 -13826.4892578125 -7585.779296875 -13828.80859375 -7584.94189453125 C -13830.4609375 -7584.3447265625 -13832.017578125 -7583.78173828125 -13833.4287109375 -7583.78173828125 C -13833.7568359375 -7583.78173828125 -13834.076171875 -7583.8125 -13834.375 -7583.873046875 L -13834.564453125 -7583.9111328125 Z M -13803.1787109375 -7564.03564453125 L -13810.1552734375 -7564.03564453125 L -13810.1552734375 -7566.0703125 L -13803.1787109375 -7566.0703125 L -13803.1787109375 -7564.03564453125 Z" stroke="none"/>
    <path d="M -13798.501953125 -7559.24951171875 L -13798.501953125 -7580.9287109375 L -13806.91796875 -7580.9287109375 L -13806.3642578125 -7581.71630859375 C -13806.166015625 -7581.998046875 -13805.99609375 -7582.2841796875 -13805.8583984375 -7582.56640625 L -13805.5244140625 -7583.2529296875 L -13810.591796875 -7585.84716796875 C -13814.0576171875 -7587.625 -13817.3388671875 -7588.4892578125 -13820.6201171875 -7588.4892578125 C -13820.958984375 -7588.4892578125 -13821.302734375 -7588.47998046875 -13821.6416015625 -7588.46142578125 C -13824.7392578125 -7588.287109375 -13827.310546875 -7587.35791015625 -13829.376953125 -7586.61181640625 C -13831.013671875 -7586.0205078125 -13832.3076171875 -7585.55322265625 -13833.41015625 -7585.55322265625 C -13833.91015625 -7585.55322265625 -13834.341796875 -7585.6494140625 -13834.728515625 -7585.84716796875 L -13835.3720703125 -7586.17822265625 L -13839.3369140625 -7578.064453125 C -13839.3232421875 -7578.0576171875 -13839.310546875 -7578.05078125 -13839.296875 -7578.0439453125 C -13838.201171875 -7577.46875 -13835.63671875 -7576.12255859375 -13831.7587890625 -7575.18212890625 C -13831.19140625 -7575.04345703125 -13830.60546875 -7574.9404296875 -13830.017578125 -7574.8759765625 L -13829.572265625 -7574.8271484375 L -13829.572265625 -7559.24951171875 L -13798.501953125 -7559.24951171875 M -13828.1142578125 -7574.36865234375 L -13799.9609375 -7574.36865234375 L -13799.9609375 -7560.77197265625 L -13828.1142578125 -7560.77197265625 L -13828.1142578125 -7574.36865234375 M -13817.546875 -7580.62548828125 L -13817.2490234375 -7580.57373046875 C -13815.904296875 -7580.33837890625 -13814.52734375 -7579.97705078125 -13813.1572265625 -7579.49951171875 C -13812.5390625 -7579.283203125 -13811.896484375 -7579.173828125 -13811.2451171875 -7579.173828125 C -13810.7158203125 -7579.173828125 -13810.1845703125 -7579.2470703125 -13809.66796875 -7579.39111328125 L -13809.6015625 -7579.40966796875 L -13799.9609375 -7579.40966796875 L -13799.9609375 -7575.888671875 L -13823.109375 -7575.888671875 L -13821.630859375 -7576.8125 C -13820.16015625 -7577.732421875 -13818.84765625 -7578.9345703125 -13817.7314453125 -7580.3857421875 L -13817.546875 -7580.62548828125 M -13834.705078125 -7584.1943359375 L -13834.326171875 -7584.1181640625 C -13834.0380859375 -7584.06005859375 -13833.7451171875 -7584.03173828125 -13833.4287109375 -7584.03173828125 C -13832.0615234375 -7584.03173828125 -13830.595703125 -7584.56201171875 -13828.8935546875 -7585.1767578125 C -13826.5546875 -7586.021484375 -13823.9033203125 -7586.97900390625 -13820.6142578125 -7586.97900390625 C -13817.5810546875 -7586.97900390625 -13814.513671875 -7586.1630859375 -13811.234375 -7584.48388671875 L -13807.5068359375 -7582.5732421875 L -13807.9736328125 -7582.08837890625 C -13808.8271484375 -7581.2021484375 -13810.015625 -7580.693359375 -13811.2353515625 -7580.693359375 C -13811.732421875 -7580.693359375 -13812.2236328125 -7580.7763671875 -13812.6962890625 -7580.9404296875 C -13815.51953125 -7581.92578125 -13818.2783203125 -7582.42529296875 -13820.896484375 -7582.42529296875 C -13823.708984375 -7582.42529296875 -13825.609375 -7581.8505859375 -13826.4404296875 -7581.53564453125 L -13825.798828125 -7580.158203125 C -13825.2138671875 -7580.36767578125 -13824.1669921875 -7580.6640625 -13822.728515625 -7580.8134765625 C -13822.1484375 -7580.87158203125 -13821.5478515625 -7580.9013671875 -13820.94140625 -7580.9013671875 C -13820.7392578125 -7580.9013671875 -13820.533203125 -7580.89794921875 -13820.3291015625 -7580.89111328125 L -13819.1943359375 -7580.85498046875 L -13819.9873046875 -7580.04248046875 C -13822.3349609375 -7577.6357421875 -13825.3759765625 -7576.310546875 -13828.5478515625 -7576.31103515625 C -13829.501953125 -7576.31103515625 -13830.4716796875 -7576.42919921875 -13831.427734375 -7576.66259765625 C -13833.3427734375 -7577.12744140625 -13835.181640625 -7577.7587890625 -13836.892578125 -7578.5390625 L -13837.3603515625 -7578.75244140625 L -13837.134765625 -7579.21337890625 L -13834.705078125 -7584.1943359375 M -13803.4287109375 -7564.28564453125 L -13803.4287109375 -7565.8203125 L -13809.9052734375 -7565.8203125 L -13809.9052734375 -7564.28564453125 L -13803.4287109375 -7564.28564453125 M -13798.001953125 -7558.74951171875 L -13830.072265625 -7558.74951171875 L -13830.072265625 -7574.37890625 C -13830.673828125 -7574.44482421875 -13831.2763671875 -7574.54931640625 -13831.8779296875 -7574.6962890625 C -13836.5546875 -7575.8310546875 -13839.3408203125 -7577.54150390625 -13840.001953125 -7577.841796875 L -13835.59765625 -7586.8564453125 L -13834.5 -7586.2919921875 C -13833.35546875 -7585.70751953125 -13831.7548828125 -7586.2841796875 -13829.546875 -7587.08203125 C -13827.447265625 -7587.84033203125 -13824.8359375 -7588.7822265625 -13821.669921875 -7588.96044921875 C -13821.3203125 -7588.9794921875 -13820.9697265625 -7588.9892578125 -13820.6201171875 -7588.9892578125 C -13817.265625 -7588.9892578125 -13813.8984375 -7588.10546875 -13810.36328125 -7586.2919921875 L -13804.861328125 -7583.47509765625 L -13805.408203125 -7582.34814453125 C -13805.5673828125 -7582.02197265625 -13805.7529296875 -7581.71630859375 -13805.955078125 -7581.4287109375 L -13798.001953125 -7581.4287109375 L -13798.001953125 -7558.74951171875 Z M -13827.6142578125 -7573.86865234375 L -13827.6142578125 -7561.27197265625 L -13800.4609375 -7561.27197265625 L -13800.4609375 -7573.86865234375 L -13827.6142578125 -7573.86865234375 Z M -13817.3349609375 -7580.0810546875 C -13818.4853515625 -7578.5859375 -13819.8486328125 -7577.33740234375 -13821.3662109375 -7576.388671875 L -13800.4609375 -7576.388671875 L -13800.4609375 -7578.90966796875 L -13809.533203125 -7578.90966796875 C -13810.79296875 -7578.55859375 -13812.1025390625 -7578.60107421875 -13813.322265625 -7579.02734375 C -13814.7763671875 -7579.5341796875 -13816.115234375 -7579.86767578125 -13817.3349609375 -7580.0810546875 Z M -13834.4248046875 -7583.6279296875 L -13836.685546875 -7578.994140625 C -13835.00390625 -7578.22705078125 -13833.19921875 -7577.60693359375 -13831.3095703125 -7577.1484375 C -13827.2578125 -7576.16064453125 -13823.2919921875 -7577.37109375 -13820.3447265625 -7580.3916015625 C -13821.244140625 -7580.41943359375 -13822.0283203125 -7580.380859375 -13822.6787109375 -7580.31591796875 C -13824.8359375 -7580.091796875 -13826.0400390625 -7579.52587890625 -13826.0517578125 -7579.51806640625 L -13827.11328125 -7581.79443359375 C -13826.884765625 -7581.90478515625 -13821.4208984375 -7584.5146484375 -13812.53125 -7581.41259765625 C -13811.0263671875 -7580.8896484375 -13809.3974609375 -7581.32861328125 -13808.333984375 -7582.43505859375 L -13811.462890625 -7584.0390625 C -13819.3681640625 -7588.087890625 -13824.556640625 -7586.2119140625 -13828.728515625 -7584.705078125 C -13830.4287109375 -7584.09033203125 -13831.974609375 -7583.53173828125 -13833.4287109375 -7583.53173828125 C -13833.765625 -7583.53173828125 -13834.0966796875 -7583.56201171875 -13834.4248046875 -7583.6279296875 Z M -13802.9287109375 -7563.78564453125 L -13810.4052734375 -7563.78564453125 L -13810.4052734375 -7566.3203125 L -13802.9287109375 -7566.3203125 L -13802.9287109375 -7563.78564453125 Z" stroke="none" fill="#fff"/>
  </g>
</svg>
