<svg xmlns="http://www.w3.org/2000/svg" width="21" height="23" viewBox="0 0 21 23">
  <defs>
    <style>.a{}</style>
  </defs>
  <path class="a" d="M12.131,11.724h-.9V8.793C13.86,8.587,15.14,7.21,15.14,4.6a4.64,4.64,0,1,0-9.279,0H7.326a3.174,3.174,0,1,1,6.349,0c0,1.7-.527,2.755-3.174,2.755H9.767v4.367h-.9A8.88,8.88,0,0,0,0,20.6,2.364,2.364,0,0,0,2.364,22.96H18.636A2.364,2.364,0,0,0,21,20.6a8.88,8.88,0,0,0-8.869-8.872Zm6.505,9.771H2.364a.9.9,0,0,1-.9-.9,7.415,7.415,0,0,1,7.4-7.406h3.262a7.415,7.415,0,0,1,7.4,7.406.9.9,0,0,1-.9.9Z" transform="translate(0 0.04)"/>
</svg>