<svg xmlns="http://www.w3.org/2000/svg" width="26.645" height="22.17" viewBox="0 0 26.645 22.17"><defs><style>.a{fill:#ec008c;}</style></defs><g transform="translate(0 -42.851)"><path class="a" d="M109.179,88.688l-1.561-1.561V84.01a.559.559,0,1,0-1.117,0v3.342c0,.11.11.334.11.444l1.681,1.671c.11.11.225.11.444.11s.334,0,.444-.11A.533.533,0,0,0,109.179,88.688Z" transform="translate(-100.939 -38.48)"/><g transform="translate(16.708 49.315)"><g transform="translate(0 0)"><path d="M327.571,171.214,322,166.761a.846.846,0,0,0-.559-.11c-.225.11-.334.225-.334.444L320,171.549a.673.673,0,0,0,.11.444.585.585,0,0,0,.444.224h6.683a.614.614,0,0,0,.559-.334C327.905,171.658,327.8,171.439,327.571,171.214Zm-6.344,0,.778-2.9,3.676,2.9Z" transform="translate(-320 -166.651)"/></g></g><g transform="translate(0 42.851)"><g transform="translate(0)"><path d="M25.4,52.1l-4.678-3.9a3.827,3.827,0,0,0-2.339-.893H12.03a6.209,6.209,0,0,0-5.905-4.454A6.178,6.178,0,0,0,0,48.976a5.943,5.943,0,0,0,2.115,4.569L.334,57A3.4,3.4,0,0,0,0,58.447a3.234,3.234,0,0,0,3.232,3.232h.11a3.841,3.841,0,0,0,3.785,3.342h.11A3.9,3.9,0,0,0,11.1,61.679H15.46a3.98,3.98,0,0,0,.282,1,3.862,3.862,0,0,0,3.524,2.344h.052a3.9,3.9,0,0,0,3.859-3.347,1.775,1.775,0,0,0,1.321-.882l1.112-2.115a8.688,8.688,0,0,0,1.029-3.785A3.037,3.037,0,0,0,25.4,52.1ZM1.112,48.866a5.012,5.012,0,1,1,5.012,5.012A4.994,4.994,0,0,1,1.112,48.866ZM7.242,63.9a2.783,2.783,0,1,1,2.783-2.783A2.782,2.782,0,0,1,7.242,63.9Zm12.082,0a2.783,2.783,0,1,1,2.783-2.783A2.782,2.782,0,0,1,19.324,63.9Zm6.307-9.022a9.38,9.38,0,0,1-1,3.342s-.794,1.608-1.112,2.115a.645.645,0,0,1-.256.245,3.993,3.993,0,0,0-1.342-2.37,3.9,3.9,0,0,0-6.469,2.459H11.137a3.609,3.609,0,0,0-.459-1.389,3.9,3.9,0,0,0-7.315,1.389,2.118,2.118,0,0,1-2.031-2.115,3.159,3.159,0,0,1,.225-1l1.671-3.342a5.977,5.977,0,0,0,3.117.893,6.178,6.178,0,0,0,6.125-6.125v-.559h6.125a2.378,2.378,0,0,1,1.462.559l4.678,3.9A2.358,2.358,0,0,1,25.631,54.881Z" transform="translate(0 -42.851)"/></g></g></g></svg>