<svg xmlns="http://www.w3.org/2000/svg" width="42" height="42.002" viewBox="0 0 42 42.002">
  <g id="delivery-box" transform="translate(0 -0.447)">
    <g id="Path_413" data-name="Path 413" transform="translate(0 -129.12)">
      <path d="M 2.326157569885254 159.6394500732422 C 0.9483422040939331 156.8114471435547 0.2500065863132477 153.7608337402344 0.2500065863132477 150.5676879882812 C 0.2500065863132477 147.3744659423828 0.94833904504776 144.3238372802734 2.326154470443726 141.495849609375 L 4.031148910522461 142.4801788330078 C 2.823221445083618 145.0081176757812 2.210946559906006 147.7278137207031 2.210946559906006 150.5676879882812 C 2.210946559906006 153.4075469970703 2.82321834564209 156.1272277832031 4.031145572662354 158.6551361083984 L 2.326157569885254 159.6394500732422 Z" stroke="none"/>
      <path d="M 2.434943437576294 159.2879791259766 L 3.707077980041504 158.5535430908203 C 2.548120498657227 156.0511474609375 1.960946559906006 153.3670196533203 1.960946559906006 150.5676879882812 C 1.960946559906006 147.7683563232422 2.548124074935913 145.0841979980469 3.70708155632019 142.5817565917969 L 2.434944629669189 141.8473205566406 C 1.150646209716797 144.57275390625 0.5000065565109253 147.5036315917969 0.5000065565109253 150.5676879882812 C 0.5000065565109253 153.6316833496094 1.150645017623901 156.5625152587891 2.434943437576294 159.2879791259766 M 2.220346689224243 159.9892120361328 C 0.7682265639305115 157.1017456054688 6.584091352124233e-06 153.8937835693359 6.584091352124233e-06 150.5676879882812 C 6.584091352124233e-06 147.2415313720703 0.7682265639305115 144.0335235595703 2.220346689224243 141.1460876464844 L 4.357666492462158 142.3800048828125 C 3.117436647415161 144.8954620361328 2.460946559906006 147.680908203125 2.460946559906006 150.5676879882812 C 2.460946559906006 153.4544372558594 3.117436647415161 156.2398986816406 4.357666492462158 158.7552947998047 L 2.220346689224243 159.9892120361328 Z" stroke="none" fill="#fff"/>
    </g>
    <g id="Path_414" data-name="Path 414" transform="translate(-421.236 -129.12)">
      <path d="M 460.9095764160156 159.6394653320312 L 459.2045593261719 158.6551361083984 C 460.4125366210938 156.1273193359375 461.0248107910156 153.4076538085938 461.0248107910156 150.5676879882812 C 461.0248107910156 147.7276916503906 460.4125366210938 145.0079803466797 459.2045288085938 142.4801177978516 L 460.9095153808594 141.4958343505859 C 462.2873229980469 144.3236999511719 462.9856567382812 147.3743438720703 462.9856567382812 150.5676879882812 C 462.9856567382812 153.7610473632812 462.2873229980469 156.8116455078125 460.9095764160156 159.6394653320312 Z" stroke="none"/>
      <path d="M 460.8007202148438 141.8473052978516 L 459.5286254882812 142.5816955566406 C 460.6876220703125 145.0840454101562 461.2748107910156 147.7682189941406 461.2748107910156 150.5676879882812 C 461.2748107910156 153.3671112060547 460.6876220703125 156.0512390136719 459.5286254882812 158.5535583496094 L 460.80078125 159.2879791259766 C 462.0850524902344 156.5626983642578 462.7356567382812 153.6318817138672 462.7356567382812 150.5676879882812 C 462.7356567382812 147.5035247802734 462.0850219726562 144.5726623535156 460.8007202148438 141.8473052978516 M 461.0153198242188 141.1460876464844 C 462.4674987792969 144.0335235595703 463.2356567382812 147.2415313720703 463.2356567382812 150.5676879882812 C 463.2356567382812 153.8937835693359 462.4675598144531 157.1017456054688 461.015380859375 159.9892120361328 L 458.8780212402344 158.7552947998047 C 460.1183471679688 156.2398986816406 460.7748107910156 153.4544372558594 460.7748107910156 150.5676879882812 C 460.7748107910156 147.680908203125 460.1183471679688 144.8953857421875 458.8780212402344 142.3799438476562 L 461.0153198242188 141.1460876464844 Z" stroke="none" fill="#fff"/>
    </g>
    <g id="Path_415" data-name="Path 415" transform="translate(-38.664)">
      <path d="M 44.17897415161133 10.76054573059082 L 42.4755744934082 9.777113914489746 C 43.21359252929688 8.691703796386719 44.05903625488281 7.670309543609619 44.99152374267578 6.737832546234131 C 46.79660415649414 4.932772159576416 48.87687301635742 3.495142459869385 51.17454528808594 2.464852333068848 C 53.38712310791016 1.472722768783569 55.74369430541992 0.8839651942253113 58.18350601196289 0.7134169340133667 L 58.18350601196289 2.679681301116943 C 53.73376083374023 3.025441408157349 49.54923629760742 4.95341682434082 46.37809371948242 8.124402046203613 C 45.56616973876953 8.936403274536133 44.82714080810547 9.822394371032715 44.17897415161133 10.76054573059082 Z" stroke="none"/>
      <path d="M 44.10554885864258 10.42948341369629 C 44.72994232177734 9.548823356628418 45.43344879150391 8.715560913085938 46.20132446289062 7.947622299194336 C 49.35997772216797 4.789123058319092 53.51029586791992 2.847715377807617 57.93350601196289 2.449769258499146 L 57.93350601196289 0.9832286238670349 C 55.61833572387695 1.174939870834351 53.38151168823242 1.749215602874756 51.27682495117188 2.692972421646118 C 49.00701522827148 3.710772275924683 46.95180511474609 5.13113260269165 45.16829299926758 6.914612293243408 C 44.31065368652344 7.772243022918701 43.52748870849609 8.7060546875 42.83515167236328 9.696039199829102 L 44.10554885864258 10.42948341369629 M 44.25487518310547 11.09304237365723 L 42.11902236938477 9.859942436218262 C 42.89585494995117 8.68525218963623 43.79607391357422 7.579712390899658 44.81474304199219 6.561052322387695 C 48.48965454101562 2.886212348937988 53.28693389892578 0.7424023747444153 58.43350601196289 0.4470023810863495 L 58.43350601196289 2.912462472915649 C 53.94474411010742 3.204652309417725 49.76483535766602 5.091372489929199 46.55486297607422 8.301182746887207 C 45.69041442871094 9.165712356567383 44.92219543457031 10.10079193115234 44.25487518310547 11.09304237365723 Z" stroke="none" fill="#fff"/>
    </g>
    <g id="Path_416" data-name="Path 416" transform="translate(-38.664 -349.97)">
      <path d="M 58.18350219726562 392.1517944335938 C 55.74361801147461 391.9811706542969 53.38704299926758 391.3923645019531 51.17453002929688 390.4002685546875 C 48.8768196105957 389.3699645996094 46.79655075073242 387.9323120117188 44.99150848388672 386.1272277832031 C 44.05917358398438 385.195068359375 43.21371459960938 384.1736450195312 42.47556304931641 383.0879821777344 L 44.17895889282227 382.1045532226562 C 44.82721328735352 383.0428771972656 45.56617736816406 383.9287414550781 46.37808990478516 384.7406921386719 C 49.54908752441406 387.9115905761719 53.73361587524414 389.8395385742188 58.18350219726562 390.1853637695312 L 58.18350219726562 392.1517944335938 Z" stroke="none"/>
      <path d="M 57.93350219726562 391.8819580078125 L 57.93350219726562 390.4152526855469 C 53.51015090942383 390.0172729492188 49.35982894897461 388.0758972167969 46.20130920410156 384.91748046875 C 45.43350219726562 384.1496276855469 44.72997283935547 383.3163452148438 44.10553359985352 382.4356384277344 L 42.83513641357422 383.1690673828125 C 43.52760696411133 384.1593017578125 44.31072235107422 385.0930480957031 45.16828918457031 385.9504699707031 C 46.95175170898438 387.7339477539062 49.00696182250977 389.1543579101562 51.27682113647461 390.1721496582031 C 53.38144302368164 391.1158752441406 55.61825942993164 391.690185546875 57.93350219726562 391.8819580078125 M 58.43350219726562 392.418212890625 C 53.28691864013672 392.1226196289062 48.48966217041016 389.97900390625 44.81473159790039 386.3040161132812 C 43.79597854614258 385.2854309082031 42.89577102661133 384.1797790527344 42.1190185546875 383.0051574707031 L 44.25485992431641 381.7720642089844 C 44.92218017578125 382.7643127441406 45.69041061401367 383.6994323730469 46.55487060546875 384.5639343261719 C 49.76483917236328 387.7738037109375 53.94474029541016 389.6603393554688 58.43350219726562 389.9525756835938 L 58.43350219726562 392.418212890625 Z" stroke="none" fill="#fff"/>
    </g>
    <g id="Path_417" data-name="Path 417" transform="translate(-248.769 -349.97)">
      <path d="M 271.25 392.1517333984375 L 271.25 390.1853637695312 C 275.6998596191406 389.8395385742188 279.8844299316406 387.91162109375 283.0555419921875 384.74072265625 C 283.8675231933594 383.9285278320312 284.6064758300781 383.0425720214844 285.2545166015625 382.1045532226562 L 286.9580383300781 383.0879211425781 C 286.2196655273438 384.1736755371094 285.3742065429688 385.1951293945312 284.4421081542969 386.1272277832031 C 282.6370239257812 387.9322509765625 280.5567321777344 389.369873046875 278.2590026855469 390.4001770019531 C 276.0464477539062 391.3922424316406 273.6898803710938 391.9810485839844 271.25 392.1517333984375 Z" stroke="none"/>
      <path d="M 285.3279724121094 382.4356079101562 C 284.7036743164062 383.3161315917969 284.0002136230469 384.1493835449219 283.2322998046875 384.9175109863281 C 280.0736694335938 388.0758972167969 275.9233093261719 390.0172729492188 271.5 390.4152526855469 L 271.5 391.8818969726562 C 273.8152465820312 391.6900939941406 276.0520629882812 391.1157531738281 278.1567077636719 390.1720275878906 C 280.4265747070312 389.1542358398438 282.4818420410156 387.73388671875 284.2653503417969 385.9504699707031 C 285.1226806640625 385.0931091308594 285.9057922363281 384.1593627929688 286.5984497070312 383.1690063476562 L 285.3279724121094 382.4356079101562 M 285.1786193847656 381.7720642089844 L 287.3146057128906 383.0050964355469 C 286.5377197265625 384.1796875 285.6374816894531 385.2854309082031 284.618896484375 386.3040161132812 C 280.9438781738281 389.9788513183594 276.1465759277344 392.1224975585938 271 392.4181518554688 L 271 389.9525756835938 C 275.4888000488281 389.6603393554688 279.6687316894531 387.7737426757812 282.8787536621094 384.5639343261719 C 283.7431030273438 383.6993713378906 284.5113220214844 382.7643127441406 285.1786193847656 381.7720642089844 Z" stroke="none" fill="#fff"/>
    </g>
    <g id="Path_418" data-name="Path 418" transform="translate(-248.769)">
      <path d="M 285.2545166015625 10.76063442230225 C 284.6064453125 9.82255744934082 283.8674621582031 8.936588287353516 283.0555725097656 8.124502182006836 C 279.8844299316406 4.953448295593262 275.6998596191406 3.025441884994507 271.25 2.679680824279785 L 271.25 0.7134168148040771 C 273.6898193359375 0.8839651346206665 276.04638671875 1.472723126411438 278.2589721679688 2.46486234664917 C 280.5566711425781 3.495162487030029 282.6369323730469 4.932822227478027 284.4419860839844 6.737912654876709 C 285.3746337890625 7.670581817626953 286.2201538085938 8.692092895507812 286.9580078125 9.777203559875488 L 285.2545166015625 10.76063442230225 Z" stroke="none"/>
      <path d="M 271.5 0.9832286834716797 L 271.5 2.449769020080566 C 275.9233093261719 2.847725868225098 280.0736694335938 4.789155960083008 283.2323608398438 7.947742462158203 C 284.0001831054688 8.715750694274902 284.7036437988281 9.548980712890625 285.3279418945312 10.42956733703613 L 286.5984191894531 9.696125030517578 C 285.9061889648438 8.706313133239746 285.123046875 7.772557258605957 284.2652282714844 6.914682388305664 C 282.4817199707031 5.131182670593262 280.426513671875 3.710792541503906 278.1566772460938 2.69298267364502 C 276.052001953125 1.749216079711914 273.815185546875 1.174939155578613 271.5 0.9832286834716797 M 271 0.4470024108886719 C 276.1465759277344 0.7424020767211914 280.9438781738281 2.886212348937988 284.6187744140625 6.561132431030273 C 285.6374816894531 7.579882621765137 286.5377197265625 8.685332298278809 287.3145446777344 9.860032081604004 L 285.1786193847656 11.0931224822998 C 284.5113220214844 10.10087203979492 283.7431030273438 9.165792465209961 282.8787536621094 8.301261901855469 C 279.6687927246094 5.091372489929199 275.4888305664062 3.204652786254883 271 2.91246223449707 L 271 0.4470024108886719 Z" stroke="none" fill="#fff"/>
    </g>
    <g id="Path_426" data-name="Path 426" transform="translate(-124.843 -124.397)">
      <path d="M 155.4383239746094 155.4383239746094 L 136.2500152587891 155.4383239746094 L 136.2500152587891 136.2500152587891 L 155.4383239746094 136.2500152587891 L 155.4383239746094 155.4383239746094 Z M 138.2110595703125 138.2110595703125 L 138.2110595703125 138.4610595703125 L 138.2110595703125 153.2272796630859 L 138.2110595703125 153.4772796630859 L 138.4610595703125 153.4772796630859 L 153.2272796630859 153.4772796630859 L 153.4772796630859 153.4772796630859 L 153.4772796630859 153.2272796630859 L 153.4772796630859 138.4610595703125 L 153.4772796630859 138.2110595703125 L 153.2272796630859 138.2110595703125 L 149.5357513427734 138.2110595703125 L 149.2857513427734 138.2110595703125 L 149.2857513427734 138.4610595703125 L 149.2857513427734 144.7091979980469 L 142.4026336669922 144.7091979980469 L 142.4026336669922 138.4610595703125 L 142.4026336669922 138.2110595703125 L 142.1526336669922 138.2110595703125 L 138.4610595703125 138.2110595703125 L 138.2110595703125 138.2110595703125 Z M 144.3636627197266 138.2110595703125 L 144.3636627197266 138.4610595703125 L 144.3636627197266 142.6471099853516 L 144.3636627197266 142.8971099853516 L 144.6136627197266 142.8971099853516 L 147.0746917724609 142.8971099853516 L 147.3246917724609 142.8971099853516 L 147.3246917724609 142.6471099853516 L 147.3246917724609 138.4610595703125 L 147.3246917724609 138.2110595703125 L 147.0746917724609 138.2110595703125 L 144.6136627197266 138.2110595703125 L 144.3636627197266 138.2110595703125 Z" stroke="none"/>
      <path d="M 136.5000152587891 136.5000152587891 L 136.5000152587891 155.1883239746094 L 155.1883239746094 155.1883239746094 L 155.1883239746094 136.5000152587891 L 136.5000152587891 136.5000152587891 M 142.6526336669922 144.4591979980469 L 149.0357513427734 144.4591979980469 L 149.0357513427734 137.9610595703125 L 153.7272796630859 137.9610595703125 L 153.7272796630859 153.7272796630859 L 137.9610595703125 153.7272796630859 L 137.9610595703125 137.9610595703125 L 142.6526336669922 137.9610595703125 L 142.6526336669922 144.4591979980469 M 147.5746917724609 143.1471099853516 L 144.1136627197266 143.1471099853516 L 144.1136627197266 137.9610595703125 L 147.5746917724609 137.9610595703125 L 147.5746917724609 143.1471099853516 M 136.0000152587891 136.0000152587891 C 136.5829162597656 136.0000152587891 155.1027069091797 136.0000152587891 155.6883239746094 136.0000152587891 L 155.6883239746094 155.6883239746094 L 136.0000152587891 155.6883239746094 L 136.0000152587891 136.0000152587891 Z M 149.5357513427734 144.9591979980469 L 142.1526336669922 144.9591979980469 L 142.1526336669922 138.4610595703125 L 138.4610595703125 138.4610595703125 L 138.4610595703125 153.2272796630859 L 153.2272796630859 153.2272796630859 L 153.2272796630859 138.4610595703125 L 149.5357513427734 138.4610595703125 L 149.5357513427734 144.9591979980469 Z M 147.0746917724609 142.6471099853516 L 147.0746917724609 138.4610595703125 L 144.6136627197266 138.4610595703125 L 144.6136627197266 142.6471099853516 L 147.0746917724609 142.6471099853516 Z" stroke="none" fill="#fff"/>
    </g>
  </g>
</svg>
