<svg xmlns="http://www.w3.org/2000/svg" width="13" height="13" viewBox="0 0 13 13">
  <g id="Icon" transform="translate(-0.5 0)" fill="none">
    <path d="M12.992,0H1.008A.508.508,0,0,0,.5.508a4.959,4.959,0,0,0,1.663,3.7L4.387,6.188a1.809,1.809,0,0,1,.607,1.351v4.952a.508.508,0,0,0,.789.422l3-2a.508.508,0,0,0,.226-.423V7.539a1.809,1.809,0,0,1,.607-1.351l2.224-1.977A4.959,4.959,0,0,0,13.5.508.508.508,0,0,0,12.992,0Z" stroke="none"/>
    <path d="M 1.530796051025391 0.9998502731323242 C 1.649563789367676 1.945375442504883 2.107540130615234 2.823957443237305 2.82759952545166 3.463979721069336 L 5.051679611206055 5.440700054168701 C 5.650650024414063 5.97307014465332 5.994179725646973 6.738059997558594 5.994179725646973 7.53950023651123 L 5.994179725646973 11.57170391082764 L 8.00592041015625 10.23067569732666 L 8.00592041015625 7.539490222930908 C 8.00592041015625 6.738070011138916 8.34943962097168 5.973090171813965 8.948410034179688 5.440690040588379 L 11.17236995697021 3.464010238647461 C 11.89245510101318 2.823953628540039 12.35043525695801 1.945369720458984 12.46920394897461 0.9998502731323242 L 1.530796051025391 0.9998502731323242 M 1.007840156555176 -0.0001497268676757813 L 12.99228000640869 -0.0001497268676757813 L 12.99225997924805 -0.0001497268676757813 C 13.27266025543213 -0.0001497268676757813 13.5 0.2271699905395508 13.5 0.507659912109375 C 13.5 1.92180061340332 12.89375972747803 3.271870613098145 11.83673000335693 4.211430549621582 L 9.612739562988281 6.188130378723145 C 9.227100372314453 6.530910015106201 9.00592041015625 7.023450374603271 9.00592041015625 7.539490222930908 L 9.00592041015625 10.49413013458252 C 9.00592041015625 10.66392993927002 8.92101001739502 10.82242012023926 8.779769897460938 10.91664028167725 L 5.78361988067627 12.91388034820557 C 5.694911003112793 12.97304344177246 5.598228454589844 12.99984359741211 5.503911018371582 12.99984359741211 C 5.239773750305176 12.99984359741211 4.994179725646973 12.78965473175049 4.994179725646973 12.49147033691406 L 4.994179725646973 7.53950023651123 C 4.994179725646973 7.023450374603271 4.77299976348877 6.530910015106201 4.387350082397461 6.188140392303467 L 2.16327953338623 4.211430549621582 C 1.106229782104492 3.271870613098145 0.5 1.921810150146484 0.5 0.507659912109375 C 0.5 0.2271804809570313 0.7273397445678711 -0.0001497268676757813 1.007840156555176 -0.0001497268676757813 Z M 12.99225997924805 -0.0001497268676757813 L 12.99228000640869 -0.0001497268676757813 L 12.99225997924805 -0.0001497268676757813 Z M 12.99228000640869 -0.0001497268676757813 L 12.99225997924805 -0.0001497268676757813 Z" stroke="none" fill="#000"/>
  </g>
</svg>
