<svg xmlns="http://www.w3.org/2000/svg" width="15.003" height="13.707" viewBox="0 0 15.003 13.707">
  <g id="Hide_-_Show" data-name="Hide - Show" transform="translate(0 1.353)">
    <g id="_Hide" data-name=" Hide" transform="translate(-18 -19.5)">
      <path id="Hide" d="M49.332-430.081a16.864,16.864,0,0,1,3.532-3.9l.955.959a14.561,14.561,0,0,0-2.877,2.978c1.165,1.547,3.573,4.108,5.89,4.108a5.192,5.192,0,0,0,2.911-1.136l.948.958a6.6,6.6,0,0,1-3.859,1.513C52.741-424.6,49.332-430.081,49.332-430.081ZM61.3-428.418a16.2,16.2,0,0,0,1.426-1.663c-1.166-1.548-3.566-4.108-5.891-4.108a3.722,3.722,0,0,0-1.125.158l-1.036-1.04a5.384,5.384,0,0,1,2.161-.486c4.091,0,7.5,5.477,7.5,5.477a17.953,17.953,0,0,1-2.1,2.6Z" transform="translate(-31.332 455.057)" fill="#ec008c"/>
      <line id="Line_480" data-name="Line 480" x1="13" y1="13" transform="translate(19 18.5)" fill="none" stroke="#ec008c" stroke-width="1"/>
    </g>
  </g>
</svg>
