<svg xmlns="http://www.w3.org/2000/svg"
  xmlns:xlink="http://www.w3.org/1999/xlink" width="14" height="13" viewBox="0 0 14 13">
  <defs>
    <style>.a{fill:url(#a);}</style>
    <linearGradient id="a" x1="0.96" x2="0.041" gradientUnits="objectBoundingBox">
      <stop offset="0" stop-color="#d9d9d9"/>
      <stop offset="0.506" stop-color="#d9d9d9"/>
      <stop offset="0.51" stop-color="#ffcb5f"/>
      <stop offset="1" stop-color="#ffcb5f"/>
    </linearGradient>
  </defs>
  <path class="a" d="M6.549.936a.5.5,0,0,1,.9,0L8.982,4.118a.5.5,0,0,0,.39.279l3.552.436A.5.5,0,0,1,13.2,5.7L10.6,8.075a.5.5,0,0,0-.153.465l.671,3.424a.5.5,0,0,1-.727.537L7.237,10.8a.5.5,0,0,0-.473,0L3.6,12.5a.5.5,0,0,1-.727-.537L3.548,8.54A.5.5,0,0,0,3.4,8.075L.8,5.7a.5.5,0,0,1,.277-.865L4.629,4.4a.5.5,0,0,0,.39-.279Z"/>
</svg>