<svg id="information" xmlns="http://www.w3.org/2000/svg" width="18" height="18" viewBox="0 0 18 18">
  <circle id="Ellipse_234" data-name="Ellipse 234" cx="0.879" cy="0.879" r="0.879" transform="translate(8.121 12.428)" fill="#999"/>
  <path id="Path_490" data-name="Path 490" d="M9,0a9,9,0,1,0,9,9A9,9,0,0,0,9,0ZM9,16.594A7.594,7.594,0,1,1,16.594,9,7.59,7.59,0,0,1,9,16.594Z" fill="#999"/>
  <path id="Path_491" data-name="Path 491" d="M178.813,128.5A2.816,2.816,0,0,0,176,131.313a.7.7,0,0,0,1.406,0,1.406,1.406,0,1,1,1.406,1.406.7.7,0,0,0-.7.7v1.758a.7.7,0,0,0,1.406,0v-1.144a2.813,2.813,0,0,0-.7-5.536Z" transform="translate(-169.813 -123.982)" fill="#999"/>
</svg>
