<svg xmlns="http://www.w3.org/2000/svg" width="15.708" height="15" viewBox="0 0 15.708 15">
  <g id="location" transform="translate(0.354 0.25)">
    <path id="Path_442" data-name="Path 442" d="M176.449,78.063a1.844,1.844,0,1,0-1.844,1.863A1.856,1.856,0,0,0,176.449,78.063Zm-3.023,0a1.179,1.179,0,1,1,1.179,1.192A1.187,1.187,0,0,1,173.426,78.063Zm0,0" transform="translate(-167.105 -73.343)" fill="#999" stroke="#999" stroke-width="0.5"/>
    <path id="Path_443" data-name="Path 443" d="M0,14.5H15L12.966,8.769H10.132l.813-.886a4.58,4.58,0,0,0,.972-1.622A4.753,4.753,0,0,0,10.823,1.41,4.611,4.611,0,0,0,7.508,0H7.5A4.7,4.7,0,0,0,2.829,4.72a4.767,4.767,0,0,0,.207,1.392A4.652,4.652,0,0,0,4.057,7.886l.811.883H2.034ZM3.876,5.851a3.873,3.873,0,0,1-.168-1.13A3.817,3.817,0,0,1,7.5.888h.007A3.743,3.743,0,0,1,10.2,2.034a3.857,3.857,0,0,1,.888,3.938A3.7,3.7,0,0,1,10.3,7.279L7.5,10.33,4.7,7.281a3.755,3.755,0,0,1-.826-1.431ZM5.684,9.657,7.5,11.636,9.316,9.657H12.44l1.093,3.954H1.467L2.56,9.657Zm0,0" fill="#999" stroke="#999" stroke-width="0.5"/>
  </g>
</svg>
