<svg xmlns="http://www.w3.org/2000/svg" width="18" height="18" viewBox="0 0 18 18">
  <g id="logout" transform="translate(0 -0.008)">
    <path id="Path_498" data-name="Path 498" d="M285.019,209.133h-7.125a.563.563,0,0,1,0-1.125h7.125a.563.563,0,0,1,0,1.125Zm0,0" transform="translate(-267.583 -200.688)" fill="#999"/>
    <path id="Path_499" data-name="Path 499" d="M400.566,134.721a.563.563,0,0,1-.4-.961l2.415-2.415-2.415-2.415a.563.563,0,1,1,.8-.8l2.812,2.813a.563.563,0,0,1,0,.8l-2.812,2.813A.559.559,0,0,1,400.566,134.721Zm0,0" transform="translate(-385.942 -123.463)" fill="#999"/>
    <path id="Path_500" data-name="Path 500" d="M6,18.008a1.545,1.545,0,0,1-.465-.07l-4.513-1.5A1.514,1.514,0,0,1,0,15.008V1.508A1.5,1.5,0,0,1,1.5.008a1.547,1.547,0,0,1,.465.07l4.513,1.5A1.514,1.514,0,0,1,7.5,3.008v13.5a1.5,1.5,0,0,1-1.5,1.5ZM1.5,1.133a.376.376,0,0,0-.375.375v13.5a.39.39,0,0,0,.26.361l4.492,1.5A.407.407,0,0,0,6,16.883a.376.376,0,0,0,.375-.375V3.008a.39.39,0,0,0-.26-.361L1.622,1.15A.407.407,0,0,0,1.5,1.133Zm0,0" transform="translate(0 0)" fill="#999"/>
    <path id="Path_501" data-name="Path 501" d="M37.167,6.008a.563.563,0,0,1-.562-.562V2.071a.939.939,0,0,0-.937-.938H27.23a.563.563,0,0,1,0-1.125h8.437A2.064,2.064,0,0,1,37.73,2.071V5.446A.563.563,0,0,1,37.167,6.008Zm0,0" transform="translate(-25.731)" fill="#999"/>
    <path id="Path_502" data-name="Path 502" d="M184.895,283.34h-3a.563.563,0,0,1,0-1.125h3a.939.939,0,0,0,.937-.938V277.9a.562.562,0,1,1,1.125,0v3.375A2.064,2.064,0,0,1,184.895,283.34Zm0,0" transform="translate(-174.958 -267.582)" fill="#999"/>
  </g>
</svg>
