<svg xmlns="http://www.w3.org/2000/svg" width="12.906" height="12.998" viewBox="0 0 12.906 12.998">
  <defs>
    <style>.a{fill:#fff;}.b,.c{stroke:none;}.c{fill:#000;}</style>
  </defs>
  <g class="a" transform="translate(16643 8736.998)">
    <path class="b" d="M -16633 -8724.525390625 C -16633.259765625 -8724.7314453125 -16634.00390625 -8725.5888671875 -16635.1484375 -8726.9248046875 L -16633.865234375 -8725.5361328125 L -16632.998046875 -8724.5966796875 L -16632.998046875 -8724.669921875 L -16632.146484375 -8725.521484375 L -16631.109375 -8726.5576171875 C -16632.107421875 -8725.4296875 -16632.76171875 -8724.708984375 -16633 -8724.525390625 Z M -16636.5 -8735.9990234375 L -16642.5 -8735.9990234375 L -16642.5 -8736.0009765625 L -16636.5 -8736.0009765625 L -16636.5 -8735.9990234375 Z"/>
    <path class="c" d="M -16633.001953125 -8724 C -16633.27734375 -8724 -16633.498046875 -8724.2255859375 -16635.830078125 -8726.953125 L -16635.15625 -8727.6708984375 L -16633.498046875 -8725.875 L -16633.498046875 -8736.5009765625 C -16633.498046875 -8736.7763671875 -16633.27734375 -8736.998046875 -16633.001953125 -8736.998046875 C -16632.7265625 -8736.998046875 -16632.5 -8736.7763671875 -16632.5 -8736.5009765625 L -16632.5 -8725.875 L -16630.8125 -8727.5625 L -16630.09375 -8726.953125 C -16632.5 -8724.2255859375 -16632.7265625 -8724 -16633.001953125 -8724 Z M -16639 -8724.5009765625 L -16643 -8724.5009765625 L -16643 -8725.4990234375 L -16639 -8725.4990234375 L -16639 -8724.5009765625 Z M -16636.998046875 -8730.001953125 L -16643 -8730.001953125 L -16643 -8731 L -16636.998046875 -8731 L -16636.998046875 -8730.001953125 Z M -16636 -8735.4990234375 L -16643 -8735.4990234375 L -16643 -8736.5009765625 L -16636 -8736.5009765625 L -16636 -8735.4990234375 Z"/>
  </g>
</svg>