<svg xmlns="http://www.w3.org/2000/svg" width="25" height="23" viewBox="0 0 25 23"><path d="M-9026.893-3587.215h1.605a9.749,9.749,0,0,0,8.331,4.8,9.746,9.746,0,0,0,8.33-4.8h1.606a11.162,11.162,0,0,1-9.937,6.214A11.164,11.164,0,0,1-9026.893-3587.215Zm5.132-2.555a2.513,2.513,0,0,1-.373-1.46,6.577,6.577,0,0,1,.075-.96l.252-1.48q.529-3.154,3.44-3.15c1.624,0,2.428.749,2.428,2.238a4.835,4.835,0,0,1-.085.912l-.262,1.48a4.1,4.1,0,0,1-1.11,2.41,3.2,3.2,0,0,1-2.312.788,2.361,2.361,0,0,1-.3.019A2.356,2.356,0,0,1-9021.761-3589.771Zm1.8-3.881-.243,1.393a3.229,3.229,0,0,0-.065.673c0,.653.279.96.831.96a1.1,1.1,0,0,0,.839-.346,2.479,2.479,0,0,0,.476-1.258l.232-1.393a4.506,4.506,0,0,0,.065-.6c0-.633-.279-.951-.819-.979Q-9019.691-3595.2-9019.959-3593.651Zm4.225,4.523.14-.777a2.711,2.711,0,0,1,.5-1.191,3,3,0,0,1,.858-.816c.316-.2.662-.394,1.017-.588l1.092-.49a2.469,2.469,0,0,0,.738-.586,1.267,1.267,0,0,0,.286-.807c0-.507-.279-.758-.828-.758a1.107,1.107,0,0,0-.935.375,1.482,1.482,0,0,0-.317.96,1.082,1.082,0,0,0,.067.453h-1.811a2.506,2.506,0,0,1-.065-.653,2.658,2.658,0,0,1,.84-2.046,3.434,3.434,0,0,1,2.36-.769c1.67,0,2.5.69,2.5,2.074a2.831,2.831,0,0,1-.355,1.373,3.512,3.512,0,0,1-.851,1.047,8.22,8.22,0,0,1-1.006.709l-.869.509c-.251.135-.382.242-.4.326h2.7l-.287,1.652Zm-13.266,0,.13-.777a2.839,2.839,0,0,1,.5-1.191,3.082,3.082,0,0,1,.858-.816c.328-.2.662-.394,1.027-.588l1.015-.479a2.343,2.343,0,0,0,.729-.585,1.213,1.213,0,0,0,.3-.808c0-.509-.282-.76-.831-.76a1.109,1.109,0,0,0-.934.374,1.473,1.473,0,0,0-.316.962,1.051,1.051,0,0,0,.075.45h-1.819a2.925,2.925,0,0,1-.065-.653,2.658,2.658,0,0,1,.839-2.046,3.406,3.406,0,0,1,2.4-.768q2.487,0,2.489,2.074a2.95,2.95,0,0,1-.344,1.373,3.425,3.425,0,0,1-.858,1.047,8.959,8.959,0,0,1-1,.712l-.876.509c-.244.135-.4.24-.4.307h2.742l-.288,1.661Zm21.838-.009.905-5.111a2.366,2.366,0,0,1-.933.788,2.825,2.825,0,0,1-1.371.433l-.14-1.739a3.1,3.1,0,0,0,1.81-.616,2.459,2.459,0,0,0,1.035-1.363H-9004l-1.3,7.607Zm-2.118-9.607a9.662,9.662,0,0,0-7.676-3.84,9.679,9.679,0,0,0-7.679,3.842h-1.717a11.127,11.127,0,0,1,9.4-5.259,11.124,11.124,0,0,1,9.4,5.259Z" transform="translate(9029 3604.001)"/></svg>