<svg xmlns="http://www.w3.org/2000/svg" width="13.966" height="13.577" viewBox="0 0 13.966 13.577">
  <g id="Icon" transform="translate(0.1 -4.196)">
    <g id="Group_855" data-name="Group 855" transform="translate(0 5.115)">
      <g id="Group_854" data-name="Group 854">
        <path id="Path_369" data-name="Path 369" d="M10.575,42.976a.66.66,0,0,0-.661.661v2.076a.661.661,0,0,1-.661.661H1.983a.661.661,0,0,1-.661-.661V37.121a.661.661,0,0,1,.661-.661h3.84a.661.661,0,1,0,0-1.322H1.983A1.985,1.985,0,0,0,0,37.121v8.592A1.985,1.985,0,0,0,1.983,47.7h7.27a1.985,1.985,0,0,0,1.983-1.983V43.637A.66.66,0,0,0,10.575,42.976Z" transform="translate(0 -35.138)" fill="#667fc3" stroke="#fff" stroke-width="0.2"/>
      </g>
    </g>
    <g id="Group_857" data-name="Group 857" transform="translate(3.807 4.296)">
      <g id="Group_856" data-name="Group 856" transform="translate(0 0)">
        <path id="Path_370" data-name="Path 370" d="M152.324,5.031a2.544,2.544,0,0,0-3.572-.006L144.278,9.5a3.449,3.449,0,0,0-1.013,2.449v1.48a.66.66,0,0,0,.661.661h1.48a3.45,3.45,0,0,0,2.45-1.013l4.469-4.469A2.535,2.535,0,0,0,152.324,5.031Zm-5.4,7.111a2.136,2.136,0,0,1-1.516.627h-.82v-.82a2.135,2.135,0,0,1,.626-1.516l2.95-2.95,1.709,1.709Zm4.467-4.467-.584.584L149.1,6.549l.584-.584a1.209,1.209,0,0,1,1.709,1.709Z" transform="translate(-143.265 -4.296)" fill="#667fc3" stroke="#fff" stroke-width="0.2"/>
      </g>
    </g>
  </g>
</svg>
