<svg xmlns="http://www.w3.org/2000/svg" width="24.003" height="26" viewBox="0 0 24.003 26">
  <g id="Group_443" data-name="Group 443" transform="translate(-285 -569)">
    <g id="tshirt" transform="translate(285.002 569)">
      <path id="Path_219" data-name="Path 219" d="M17.5,24H6.5A1.5,1.5,0,0,1,5,22.5V10.208l-1.935.685a1.479,1.479,0,0,1-1.213-.04A1.5,1.5,0,0,1,1.058,9.9L.05,5.828A1.489,1.489,0,0,1,.69,4.183L6.39.247A1.514,1.514,0,0,1,7.215,0h9.472a1.492,1.492,0,0,1,.854.267l5.812,3.995a1.5,1.5,0,0,1,.595,1.629L22.9,9.9a1.5,1.5,0,0,1-1.86,1.052L19,10.213V22.5A1.5,1.5,0,0,1,17.5,24ZM5.5,9a.5.5,0,0,1,.5.5v13a.5.5,0,0,0,.5.5h11a.5.5,0,0,0,.5-.5V9.5a.5.5,0,0,1,.671-.47L21.349,10a.491.491,0,0,0,.349-.056.5.5,0,0,0,.237-.3l1.046-4.01a.5.5,0,0,0-.2-.548L16.974,1.09A.5.5,0,0,0,16.688,1H7.215a.494.494,0,0,0-.271.08l-5.7,3.936a.5.5,0,0,0-.226.56L2.026,9.645a.487.487,0,0,0,.262.307.493.493,0,0,0,.415.009l2.631-.933A.5.5,0,0,1,5.5,9Z"/>
      <path id="Path_220" data-name="Path 220" d="M12,5A4,4,0,0,1,8,1V.5A.5.5,0,0,1,8.5,0h7a.5.5,0,0,1,.5.5V1A4,4,0,0,1,12,5ZM9,1a3,3,0,0,0,6,0Z"/>
      <path id="Path_221" data-name="Path 221" d="M15.5,9h-2a.5.5,0,0,1,0-1h2a.5.5,0,0,1,0,1Z"/>
    </g>
    <rect id="Rectangle_384" data-name="Rectangle 384" width="12" height="14" transform="translate(294 581)" fill="#eee"/>
    <g id="Group_436" data-name="Group 436" transform="translate(282 571)">
      <path id="Path_222" data-name="Path 222" d="M19,24a.5.5,0,0,1-.2-.042c-.2-.085-4.8-2.144-4.8-6.351V14.071a.5.5,0,0,1,.335-.472l4.5-1.571a.5.5,0,0,1,.33,0l4.5,1.571a.5.5,0,0,1,.335.472v3.536c0,4.208-4.6,6.266-4.8,6.351A.5.5,0,0,1,19,24Zm-4-9.574v3.181c0,3.1,3.163,4.914,4,5.338.836-.425,4-2.242,4-5.338V14.426l-4-1.4Z" fill="#ec008c"/>
      <path id="Path_223" data-name="Path 223" d="M18.591,19.769h-.027a.5.5,0,0,1-.368-.193L16.559,17.46a.5.5,0,0,1,.791-.613l1.283,1.659,2.462-2.546a.5.5,0,1,1,.719.695l-2.863,2.961a.5.5,0,0,1-.36.153Z" fill="#ec008c"/>
    </g>
  </g>
</svg>
