<svg xmlns="http://www.w3.org/2000/svg" width="28.119" height="22.286" viewBox="0 0 28.119 22.286">
  <g id="Icon" transform="translate(20)">
    <path id="Path_202" data-name="Path 202" d="M.5,55.5a2.1,2.1,0,0,1,1.437-.741l19.8-1.653a2.112,2.112,0,0,1,2.28,1.922l.4,3.738h1.591a2.114,2.114,0,0,1,2.112,2.112v12.4a2.114,2.114,0,0,1-2.112,2.112H6.136a2.114,2.114,0,0,1-2.112-2.112V71.263l-.705.059q-.089.007-.177.007a2.115,2.115,0,0,1-2.1-1.936L.007,57.041A2.1,2.1,0,0,1,.5,55.5Zm25.507,4.364H6.136a1.015,1.015,0,0,0-1.014,1.014v1.129h21.9V60.879A1.015,1.015,0,0,0,26.007,59.865Zm1.014,3.241H5.123v2.279h21.9ZM6.136,74.288H26.007a1.015,1.015,0,0,0,1.014-1.014V66.483H5.123v6.791a1.015,1.015,0,0,0,1.014,1.014ZM1.1,56.949,2.134,69.3a1.015,1.015,0,0,0,1.094.926l.8-.067V60.879a2.114,2.114,0,0,1,2.112-2.112H23.312l-.387-3.627v-.013a1.014,1.014,0,0,0-1.094-.926l-19.8,1.653A1.014,1.014,0,0,0,1.1,56.949Z" transform="translate(-20 -53.1)" fill="#667fc3"/>
    <path id="Path_203" data-name="Path 203" d="M271.18,326.532h5.286a.549.549,0,0,1,.549.549v3.448a.549.549,0,0,1-.549.549H271.18a.549.549,0,0,1-.549-.549v-3.448A.549.549,0,0,1,271.18,326.532Zm.549,3.448h4.187v-2.35h-4.187Z" transform="translate(-283.759 -311.515)" fill="#667fc3"/>
  </g>
</svg>
