<svg xmlns="http://www.w3.org/2000/svg" width="18" height="24" viewBox="0 0 18 24">
  <g id="Privacy" transform="translate(-3)">
    <path id="Path_503" data-name="Path 503" d="M14.75,20H9.25A1.752,1.752,0,0,1,7.5,18.25v-3.5A1.752,1.752,0,0,1,9.25,13h5.5a1.752,1.752,0,0,1,1.75,1.75v3.5A1.752,1.752,0,0,1,14.75,20Zm-5.5-5.5a.25.25,0,0,0-.25.25v3.5a.25.25,0,0,0,.25.25h5.5a.25.25,0,0,0,.25-.25v-3.5a.25.25,0,0,0-.25-.25Z" fill="#999"/>
    <path id="Path_504" data-name="Path 504" d="M13.75,14.5h-3.5a.75.75,0,0,1-.75-.75V11.5a2.5,2.5,0,0,1,5,0v2.25A.75.75,0,0,1,13.75,14.5ZM11,13h2V11.5a1,1,0,0,0-2,0Z" fill="#999"/>
    <path id="Path_505" data-name="Path 505" d="M18.25,24H5.75A2.752,2.752,0,0,1,3,21.25V5.75A2.752,2.752,0,0,1,5.75,3H7.633a.75.75,0,0,1,0,1.5H5.75A1.252,1.252,0,0,0,4.5,5.75v15.5A1.252,1.252,0,0,0,5.75,22.5h12.5a1.252,1.252,0,0,0,1.25-1.25V5.75A1.252,1.252,0,0,0,18.25,4.5H16.367a.75.75,0,0,1,0-1.5H18.25A2.752,2.752,0,0,1,21,5.75v15.5A2.752,2.752,0,0,1,18.25,24Z" fill="#999"/>
    <path id="Path_506" data-name="Path 506" d="M15.25,6.5H8.75A1.752,1.752,0,0,1,7,4.75v-2A.75.75,0,0,1,7.75,2h1.6a2.75,2.75,0,0,1,5.292,0h1.6a.75.75,0,0,1,.75.75v2A1.752,1.752,0,0,1,15.25,6.5ZM8.5,3.5V4.75A.25.25,0,0,0,8.75,5h6.5a.25.25,0,0,0,.25-.25V3.5H14a.75.75,0,0,1-.75-.75,1.25,1.25,0,0,0-2.5,0A.75.75,0,0,1,10,3.5Z" fill="#999"/>
  </g>
</svg>
