<svg xmlns="http://www.w3.org/2000/svg" width="16.998" height="23" viewBox="0 0 16.998 23">
  <defs>
    <style>.a{fill:none;}.b,.c{stroke:none;}.c{fill:#000;}</style>
  </defs>
  <g class="a" transform="translate(8754.001 2822.001)">
    <path class="c" d="M -8739.8349609375 -2800.5009765625 C -8739.1005859375 -2800.5009765625 -8738.5029296875 -2801.099365234375 -8738.5029296875 -2801.8349609375 L -8738.5029296875 -2802.001953125 C -8738.5029296875 -2805.86181640625 -8741.6416015625 -2809.001953125 -8745.5 -2809.001953125 C -8749.3603515625 -2809.001953125 -8752.5009765625 -2805.86181640625 -8752.5009765625 -2802.001953125 L -8752.5009765625 -2801.8349609375 C -8752.5009765625 -2801.099365234375 -8751.90234375 -2800.5009765625 -8751.166015625 -2800.5009765625 L -8739.8349609375 -2800.5009765625 M -8745.5 -2813.917724609375 C -8743.7236328125 -2813.917724609375 -8742.279296875 -2815.36279296875 -8742.279296875 -2817.138916015625 L -8742.279296875 -2817.27734375 C -8742.279296875 -2819.054931640625 -8743.7236328125 -2820.5009765625 -8745.5 -2820.5009765625 C -8747.2763671875 -2820.5009765625 -8748.7216796875 -2819.054931640625 -8748.7216796875 -2817.27734375 L -8748.7216796875 -2817.138916015625 C -8748.7216796875 -2815.36279296875 -8747.2763671875 -2813.917724609375 -8745.5 -2813.917724609375 M -8739.8349609375 -2799.0009765625 L -8751.166015625 -2799.0009765625 C -8752.73046875 -2799.0009765625 -8754.0009765625 -2800.270751953125 -8754.0009765625 -2801.8349609375 L -8754.0009765625 -2802.001953125 C -8754.0009765625 -2806.69677734375 -8750.1953125 -2810.501953125 -8745.5 -2810.501953125 C -8740.8076171875 -2810.501953125 -8737.0029296875 -2806.69677734375 -8737.0029296875 -2802.001953125 L -8737.0029296875 -2801.8349609375 C -8737.0029296875 -2800.270751953125 -8738.2705078125 -2799.0009765625 -8739.8349609375 -2799.0009765625 Z M -8745.5 -2812.417724609375 C -8748.1083984375 -2812.417724609375 -8750.2216796875 -2814.53125 -8750.2216796875 -2817.138916015625 L -8750.2216796875 -2817.27734375 C -8750.2216796875 -2819.88525390625 -8748.1083984375 -2822.0009765625 -8745.5 -2822.0009765625 C -8742.892578125 -2822.0009765625 -8740.779296875 -2819.88525390625 -8740.779296875 -2817.27734375 L -8740.779296875 -2817.138916015625 C -8740.779296875 -2814.53125 -8742.892578125 -2812.417724609375 -8745.5 -2812.417724609375 Z"/>
  </g>
</svg>