<svg xmlns="http://www.w3.org/2000/svg" width="42" height="33.6" viewBox="0 0 42 33.6">
  <g id="received" transform="translate(0 -51.643)">
    <g id="Path_430" data-name="Path 430" transform="translate(0 0)">
      <path d="M 32.29682540893555 84.99302673339844 C 30.45863723754883 84.99302673339844 28.67538642883301 84.46132659912109 27.13985633850098 83.45540618896484 C 25.64332580566406 82.47504425048828 24.45721626281738 81.09957122802734 23.70975685119629 79.47770690917969 L 23.64276695251465 79.33234405517578 L 23.48270606994629 79.33234405517578 L 4.5328369140625 79.33234405517578 L 4.5328369140625 62.60032272338867 L 4.5328369140625 62.35032272338867 L 4.2828369140625 62.35032272338867 L 0.3793375194072723 62.35032272338867 L 4.867836952209473 51.89301300048828 L 34.40096664428711 51.89301300048828 L 38.88947677612305 62.35032272338867 L 34.98596572875977 62.35032272338867 L 34.73596572875977 62.35032272338867 L 34.73596572875977 62.60032272338867 L 34.73596572875977 66.17494201660156 L 34.73596572875977 66.36284637451172 L 34.91645812988281 66.41508483886719 C 36.84545516967773 66.97347259521484 38.58393859863281 68.16761016845703 39.81163787841797 69.77753448486328 C 41.07975769042969 71.44046020507812 41.75002670288086 73.42576599121094 41.74997711181641 75.51882171630859 C 41.74997711181641 80.742919921875 37.50930786132812 84.99302673339844 32.29682540893555 84.99302673339844 Z M 32.29689788818359 68.01100158691406 C 28.16571617126465 68.01100158691406 24.80475616455078 71.37900543212891 24.80475616455078 75.51883697509766 C 24.80475616455078 79.65869140625 28.16571617126465 83.02672576904297 32.29689788818359 83.02672576904297 C 36.42813491821289 83.02672576904297 39.78913497924805 79.65869140625 39.78913497924805 75.51883697509766 C 39.78913497924805 71.37900543212891 36.42813491821289 68.01100158691406 32.29689788818359 68.01100158691406 Z M 21.09464645385742 58.76498413085938 L 20.61491584777832 58.86359405517578 L 20.61491584777832 77.11609649658203 L 20.61491584777832 77.36609649658203 L 20.86491584777832 77.36609649658203 L 22.72547721862793 77.36609649658203 L 23.02025604248047 77.36609649658203 L 22.97211647033691 77.07526397705078 C 22.88703727722168 76.56125640869141 22.84389686584473 76.03759002685547 22.84389686584473 75.51883697509766 C 22.84389686584473 70.29480743408203 27.08453750610352 66.04474639892578 32.2969856262207 66.04474639892578 C 32.37134552001953 66.04474639892578 32.44537734985352 66.04585266113281 32.51935577392578 66.04755401611328 L 32.77511596679688 66.05345153808594 L 32.77511596679688 65.79762268066406 L 32.77511596679688 62.60025405883789 L 32.77511596679688 62.35025405883789 L 32.52511596679688 62.35025405883789 L 22.633544921875 62.35025405883789 L 21.09464645385742 58.76498413085938 Z M 6.493776798248291 62.35032272338867 L 6.493776798248291 62.60032272338867 L 6.493776798248291 77.11609649658203 L 6.493776798248291 77.36609649658203 L 6.743776798248291 77.36609649658203 L 18.40397644042969 77.36609649658203 L 18.65397644042969 77.36609649658203 L 18.65397644042969 77.11609649658203 L 18.65397644042969 58.86368179321289 L 18.17424583435059 58.76507186889648 L 16.63534736633301 62.35032272338867 L 6.743776798248291 62.35032272338867 L 6.493776798248291 62.35032272338867 Z M 21.12384605407715 53.85927200317383 L 21.27347755432129 54.20788192749023 L 23.85942649841309 60.23267364501953 L 23.92440605163574 60.38406372070312 L 24.08915710449219 60.38406372070312 L 35.5312385559082 60.38406372070312 L 35.91059494018555 60.38406372070312 L 35.76096725463867 60.03545379638672 L 33.17500686645508 54.01067352294922 L 33.11002731323242 53.85928344726562 L 32.94527816772461 53.85928344726562 L 21.50320625305176 53.85927200317383 L 21.12384605407715 53.85927200317383 Z M 6.158786773681641 53.85928344726562 L 6.093806743621826 54.01067352294922 L 3.507846593856812 60.03545379638672 L 3.358216762542725 60.38406372070312 L 3.737576723098755 60.38406372070312 L 15.17964649200439 60.38406372070312 L 15.34439659118652 60.38406372070312 L 15.4093770980835 60.23267364501953 L 17.99533653259277 54.20789337158203 L 18.14496612548828 53.85928344726562 L 17.76560592651367 53.85928344726562 L 6.32353687286377 53.85928344726562 L 6.158786773681641 53.85928344726562 Z" stroke="none"/>
      <path d="M 5.032581329345703 52.14302062988281 L 0.7586936950683594 62.10032653808594 L 4.7828369140625 62.10032653808594 L 4.7828369140625 79.08234405517578 L 23.80281639099121 79.08234405517578 L 23.93680763244629 79.37306213378906 C 25.44020652770996 82.63519287109375 28.72170639038086 84.74302673339844 32.29682540893555 84.74302673339844 C 37.37145614624023 84.74302673339844 41.49997711181641 80.60507202148438 41.49997711181641 75.51882934570312 C 41.50002670288086 73.48101806640625 40.84746551513672 71.54812622070312 39.61284637451172 69.92913055419922 C 38.41740798950195 68.36152648925781 36.72483825683594 67.19882202148438 34.8469352722168 66.65522003173828 L 34.48596572875977 66.55073547363281 L 34.48596572875977 62.10032653808594 L 38.51011657714844 62.10032653808594 L 34.23622131347656 52.14302062988281 L 5.032581329345703 52.14302062988281 M 36.28995513916016 60.63406372070312 L 23.75965690612793 60.63406372070312 L 20.74448585510254 53.60927581787109 L 33.27477645874023 53.60928344726562 L 36.28995513916016 60.63406372070312 M 15.50914764404297 60.63406372070312 L 2.978855133056641 60.63406372070312 L 5.994026184082031 53.60928344726562 L 18.52432632446289 53.60928344726562 L 15.50914764404297 60.63406372070312 M 22.79829025268555 62.10025024414062 L 33.02511596679688 62.10025024414062 L 33.02511596679688 66.30928039550781 L 32.51358795166016 66.29749298095703 C 32.44153594970703 66.29583740234375 32.36941528320312 66.29473114013672 32.2969856262207 66.29473114013672 C 27.22238540649414 66.29473114013672 23.09389686584473 70.43264007568359 23.09389686584473 75.51882934570312 C 23.09389686584473 76.02395629882812 23.13590621948242 76.53387451171875 23.2187671661377 77.03443908691406 L 23.3150463104248 77.6160888671875 L 20.36491584777832 77.6160888671875 L 20.36491584777832 58.86359405517578 L 21.32437705993652 58.6663818359375 L 22.79829025268555 62.10025024414062 M 18.90397644042969 77.6160888671875 L 6.243778228759766 77.6160888671875 L 6.243778228759766 62.10032653808594 L 16.4705982208252 62.10032653808594 L 17.94451713562012 58.66645050048828 L 18.90397644042969 58.86367034912109 L 18.90397644042969 77.6160888671875 M 32.29689788818359 83.27671813964844 C 28.02786636352539 83.27671813964844 24.55475616455078 79.79655456542969 24.55475616455078 75.51882934570312 C 24.55475616455078 71.24114990234375 28.02786636352539 67.76100158691406 32.29689788818359 67.76100158691406 C 36.56598663330078 67.76100158691406 40.03913497924805 71.24114990234375 40.03913497924805 75.51882934570312 C 40.03913497924805 79.79655456542969 36.56598663330078 83.27671813964844 32.29689788818359 83.27671813964844 M 4.703086853027344 51.64302062988281 L 34.56571578979492 51.64302062988281 L 39.26883697509766 62.60032653808594 L 34.98596572875977 62.60032653808594 L 34.98596572875977 66.17494201660156 C 39.03241729736328 67.34627532958984 42.00007629394531 71.09164428710938 41.99997711181641 75.51882934570312 C 41.99997711181641 80.88076782226562 37.64723587036133 85.24302673339844 32.29682540893555 85.24302673339844 C 28.39326667785645 85.24302673339844 25.02119636535645 82.92060852050781 23.48270606994629 79.58234405517578 L 4.2828369140625 79.58234405517578 L 4.2828369140625 62.60032653808594 L -2.288818359375e-05 62.60032653808594 L 4.703086853027344 51.64302062988281 Z M 21.50320625305176 54.10927581787109 L 24.08915710449219 60.13406372070312 L 35.53123474121094 60.13406372070312 L 32.94527435302734 54.10928344726562 L 21.50320625305176 54.10927581787109 Z M 15.17964744567871 60.13406372070312 L 17.76560592651367 54.10928344726562 L 6.323528289794922 54.10928344726562 L 3.737575531005859 60.13406372070312 L 15.17964744567871 60.13406372070312 Z M 32.52511596679688 65.79762268066406 L 32.52511596679688 62.60025024414062 L 22.46879577636719 62.60025024414062 L 20.86491584777832 58.86359405517578 L 20.86491584777832 77.1160888671875 L 22.72547721862793 77.1160888671875 C 22.63941764831543 76.59617614746094 22.59389686584473 76.06282043457031 22.59389686584473 75.51882934570312 C 22.59389686584473 70.15699005126953 26.94664764404297 65.79473114013672 32.2969856262207 65.79473114013672 C 32.37326812744141 65.79473114013672 32.44922637939453 65.79587554931641 32.52511596679688 65.79762268066406 Z M 18.40397644042969 77.1160888671875 L 18.40397644042969 58.86367034912109 L 16.80009651184082 62.60032653808594 L 6.743778228759766 62.60032653808594 L 6.743778228759766 77.1160888671875 L 18.40397644042969 77.1160888671875 Z M 32.29689788818359 82.77671813964844 C 36.29035568237305 82.77671813964844 39.53913497924805 79.52095031738281 39.53913497924805 75.51882934570312 C 39.53913497924805 71.51682281494141 36.29035568237305 68.26100158691406 32.29689788818359 68.26100158691406 C 28.30353546142578 68.26100158691406 25.05475616455078 71.51682281494141 25.05475616455078 75.51882934570312 C 25.05475616455078 79.52095031738281 28.30353546142578 82.77671813964844 32.29689788818359 82.77671813964844 Z" stroke="none" fill="#fff"/>
    </g>
    <g id="Path_431" data-name="Path 431" transform="translate(-308.716 -230.776)">
      <path d="M 340.19677734375 310.0172729492188 L 336.6562194824219 306.4690551757812 L 338.0432434082031 305.0790710449219 L 340.0198059082031 307.0600280761719 L 340.19677734375 307.2373962402344 L 340.3737487792969 307.0600280761719 L 343.98193359375 303.4440002441406 L 345.368896484375 304.833984375 L 340.19677734375 310.0172729492188 Z" stroke="none"/>
      <path d="M 340.19677734375 309.663330078125 L 345.0157165527344 304.833984375 L 343.98193359375 303.7979431152344 L 340.19677734375 307.5913391113281 L 338.043212890625 305.4330139160156 L 337.0093994140625 306.4690551757812 L 340.19677734375 309.663330078125 M 340.19677734375 310.3712158203125 L 336.3030395507812 306.4690551757812 L 338.0432434082031 304.7251281738281 L 340.19677734375 306.8834533691406 L 343.98193359375 303.0900573730469 L 345.7220764160156 304.833984375 L 340.19677734375 310.3712158203125 Z" stroke="none" fill="#fff"/>
    </g>
    <g id="Path_432" data-name="Path 432" transform="translate(-112.648 -221.188)">
      <path d="M 124.9249420166016 294.859375 L 122.963996887207 294.859375 L 122.963996887207 292.8930969238281 L 124.9249420166016 292.8930969238281 L 124.9249420166016 294.859375 Z" stroke="none"/>
      <path d="M 123.213996887207 293.1430969238281 L 123.213996887207 294.609375 L 124.6749420166016 294.609375 L 124.6749420166016 293.1430969238281 L 123.213996887207 293.1430969238281 M 122.713996887207 292.6430969238281 L 125.1749420166016 292.6430969238281 L 125.1749420166016 295.109375 L 122.713996887207 295.109375 L 122.713996887207 292.6430969238281 Z" stroke="none" fill="#fff"/>
    </g>
  </g>
</svg>
