<svg id="return" xmlns="http://www.w3.org/2000/svg" width="24.947" height="23.712" viewBox="0 0 24.947 23.712">
  <g id="Group_446" data-name="Group 446" transform="translate(1 0.355)">
    <path id="Path_227" data-name="Path 227" d="M22.436,22.873A.438.438,0,0,1,22,22.436v-1.75a4.818,4.818,0,0,0-4.811-4.811h-1.75a.437.437,0,1,1,0-.875h1.75a5.693,5.693,0,0,1,5.686,5.686v1.75A.438.438,0,0,1,22.436,22.873Z" transform="translate(1.074 0.484)" fill="#ec008c"/>
    <path id="Path_228" data-name="Path 228" d="M18.5,18.124a.434.434,0,0,1-.284-.1l-3.062-2.624a.437.437,0,0,1,0-.665l3.062-2.624a.437.437,0,1,1,.569.665l-2.674,2.292,2.674,2.292a.437.437,0,0,1-.284.77Z" transform="translate(1.074 0.859)" fill="#ec008c"/>
  </g>
  <path id="Path_229" data-name="Path 229" d="M17.61,20.931h-15A1.609,1.609,0,0,1,1,19.324V7.536A.536.536,0,0,1,1.536,7H19.753a.536.536,0,0,1,.536.536v3.279a.536.536,0,1,1-1.072,0V8.072H2.072V19.324a.537.537,0,0,0,.536.536h15a.536.536,0,1,1,0,1.072Z" transform="translate(0.072 0.501)"/>
  <path id="Path_230" data-name="Path 230" d="M12.894,11.072H7.536a.536.536,0,1,1,0-1.072h5.358a.536.536,0,1,1,0,1.072Z" transform="translate(0.501 0.716)"/>
  <path id="Path_231" data-name="Path 231" d="M20.9,8.358H.536A.536.536,0,0,1,0,7.822V3.536A.536.536,0,0,1,.536,3H20.9a.536.536,0,0,1,.536.536V7.822A.536.536,0,0,1,20.9,8.358ZM1.072,7.286H20.361V4.072H1.072Z" transform="translate(0 0.215)"/>
  <path id="Path_232" data-name="Path 232" d="M20.9,4.286a.538.538,0,0,1-.379-.156L17.46,1.072H3.972L.915,4.13a.536.536,0,0,1-.758-.758L3.372.158A.532.532,0,0,1,3.751,0H17.682a.54.54,0,0,1,.379.156l3.215,3.215a.536.536,0,0,1-.379.915Z" transform="translate(0 0)"/>
</svg>
