<svg xmlns="http://www.w3.org/2000/svg" width="18" height="18" viewBox="0 0 18 18">
  <g id="Return" transform="translate(0 0)">
    <path id="Path_408" data-name="Path 408" d="M141.671,81a1.956,1.956,0,0,0-1.954,1.954v.971H137.94l-.435,8h8.332l-.435-8h-1.777v-.971A1.956,1.956,0,0,0,141.671,81Zm3.052,9.87h-6.1l.321-5.891H144.4Zm-3.052-8.816a.9.9,0,0,1,.9.9v.971h-1.8v-.971A.9.9,0,0,1,141.671,82.055Z" transform="translate(-132.671 -78.152)" fill="#999"/>
    <path id="Path_409" data-name="Path 409" d="M16.6,4.186l1.208.212.182-1.039L14.96,2.827l-.532,3.035,1.039.182L15.7,4.726a7.937,7.937,0,1,1-2.4-2.408l.572-.886A9,9,0,0,0,2.636,15.364,9,9,0,0,0,16.6,4.186Z" transform="translate(0 0)" fill="#999"/>
    <path id="Path_410" data-name="Path 410" d="M209.667,262.972h3.258v1.055h-3.258Z" transform="translate(-202.296 -253.727)" fill="#999"/>
  </g>
</svg>
