<svg id="Icon" xmlns="http://www.w3.org/2000/svg" width="28.059" height="28.059" viewBox="0 0 28.059 28.059">
  <path id="Path_208" data-name="Path 208" d="M18.6,26.2a7.6,7.6,0,1,1,7.6-7.6A7.608,7.608,0,0,1,18.6,26.2Zm0-14.029a6.43,6.43,0,1,0,6.43,6.43A6.438,6.438,0,0,0,18.6,12.169Z" transform="translate(1.86 1.86)" fill="#667fc3"/>
  <path id="Path_209" data-name="Path 209" d="M17.585,21.846A.585.585,0,0,1,17,21.261V16.585a.585.585,0,1,1,1.169,0v4.676A.585.585,0,0,1,17.585,21.846Z" transform="translate(2.875 2.706)" fill="#667fc3"/>
  <path id="Path_368" data-name="Path 368" d="M17.585,17.169A.585.585,0,0,1,17,16.585h0a.585.585,0,1,1,1.169,0h0A.585.585,0,0,1,17.585,17.169Z" transform="translate(2.875 -0.217)" fill="#667fc3"/>
  <path id="Path_210" data-name="Path 210" d="M11.107,24.044H2.923A2.926,2.926,0,0,1,0,21.121V5.923A2.926,2.926,0,0,1,2.923,3H5.261a.585.585,0,0,1,0,1.169H2.923A1.756,1.756,0,0,0,1.169,5.923v15.2a1.756,1.756,0,0,0,1.754,1.754h8.184a.585.585,0,0,1,0,1.169Z" transform="translate(0 0.507)" fill="#667fc3"/>
  <path id="Path_211" data-name="Path 211" d="M12.768,7.015H5.754A1.756,1.756,0,0,1,4,5.261V2.923a.585.585,0,0,1,.585-.585H6.4a2.924,2.924,0,0,1,5.729,0h1.812a.585.585,0,0,1,.585.585V5.261A1.756,1.756,0,0,1,12.768,7.015Zm-7.6-3.507V5.261a.586.586,0,0,0,.585.585h7.015a.586.586,0,0,0,.585-.585V3.507H11.6a.585.585,0,0,1-.585-.585,1.754,1.754,0,1,0-3.507,0,.585.585,0,0,1-.585.585Z" transform="translate(0.676)" fill="#667fc3"/>
  <path id="Path_213" data-name="Path 213" d="M11.768,12.169H3.585a.585.585,0,0,1,0-1.169h8.184a.585.585,0,0,1,0,1.169Z" transform="translate(0.507 -0.14)" fill="#667fc3"/>
  <path id="Path_214" data-name="Path 214" d="M9.43,15.169H3.585a.585.585,0,0,1,0-1.169H9.43a.585.585,0,0,1,0,1.169Z" transform="translate(0.507 0.368)" fill="#667fc3"/>
  <path id="Path_215" data-name="Path 215" d="M17.261,10.015a.585.585,0,0,1-.585-.585V5.923a1.756,1.756,0,0,0-1.754-1.754H12.585a.585.585,0,0,1,0-1.169h2.338a2.926,2.926,0,0,1,2.923,2.923V9.43A.585.585,0,0,1,17.261,10.015Z" transform="translate(2.029 0.507)" fill="#667fc3"/>
</svg>
