<svg xmlns="http://www.w3.org/2000/svg" width="31.802" height="21.377" viewBox="0 0 31.802 21.377">
  <g id="Icon" transform="translate(-343.6 -536.812)">
    <path id="Path_217" data-name="Path 217" d="M320.386,131.124l5.957-4.767a.905.905,0,0,1,.6-.117c.24.117.358.24.358.475l1.19,4.767a.721.721,0,0,1-.117.475.626.626,0,0,1-.475.24h-7.153a.657.657,0,0,1-.6-.358C320.029,131.6,320.146,131.364,320.386,131.124Zm6.789-.117-.833-3.1-3.934,3.1Z" transform="translate(26.915 413.948)" fill="#999"/>
    <path id="Path_218" data-name="Path 218" d="M1.411,89.175l5.6-4.666a4.578,4.578,0,0,1,2.8-1.068H23.131A3.847,3.847,0,0,1,26.6,85.57l.269.531h4.267a.668.668,0,0,1,0,1.337h-3.6l1.331,2.667h2.268a.668.668,0,0,1,0,1.337h-1.6l1.331,2.667h.269a.633.633,0,0,1,.668.668c0,.269-.131.4-.4.531a3.445,3.445,0,0,1,.4,1.468,3.87,3.87,0,0,1-3.867,3.867H27.81a4.7,4.7,0,0,1-9.345,0H13.273a4.523,4.523,0,0,1-1.687,2.992,4.7,4.7,0,0,1-7.79-3.042,2.16,2.16,0,0,1-1.318-1.012l-1.331-2.53A12.667,12.667,0,0,1,.011,92.529,3.836,3.836,0,0,1,1.411,89.175Zm21.721,14.262a3.33,3.33,0,1,0-3.33-3.33A3.329,3.329,0,0,0,23.131,103.437Zm-14.655,0a3.33,3.33,0,1,0-3.33-3.33A3.329,3.329,0,0,0,8.476,103.437ZM1.254,92.511a9.833,9.833,0,0,0,1.2,4,19.666,19.666,0,0,0,1.393,2.53c.006.012.025.025.037.037a4.7,4.7,0,0,1,9.239.362h5.341a4.567,4.567,0,0,1,2.749-3.629,4.7,4.7,0,0,1,6.566,3.623A2.531,2.531,0,0,0,30.19,96.9a3.779,3.779,0,0,0-.269-1.2l-.131-.269h-2.93a.668.668,0,1,1,0-1.337h2.268L27.8,91.43H24.2a.668.668,0,0,1,0-1.337h2.93L25.8,87.426H21.532a.668.668,0,0,1,0-1.337h3.6a2.576,2.576,0,0,0-2.268-1.331H9.538a2.515,2.515,0,0,0-1.624.668l-5.6,4.666A2.908,2.908,0,0,0,1.254,92.511Z" transform="translate(343.6 453.372)" fill="#999"/>
  </g>
</svg>
