<svg xmlns="http://www.w3.org/2000/svg" width="22" height="23" viewBox="0 0 22 23"><g transform="translate(0.035)"><path d="M18.429,4.437V2.875A2.837,2.837,0,0,0,15.632,0H6.309a2.837,2.837,0,0,0-2.8,2.875V4.313a.581.581,0,0,0,0,.125C2.58,5.309-2.454,10.388,1.4,12.18l.345.144L2.589,23H19.371l.811-10.676a.868.868,0,0,0,.354-.144C24.387,10.388,19.334,5.309,18.429,4.437ZM4.92,2.875a1.418,1.418,0,0,1,1.4-1.437h9.323a1.418,1.418,0,0,1,1.4,1.438V4.3H4.92ZM18.075,21.563H3.885L3.2,12.8a23.44,23.44,0,0,0,3.216.613,30.146,30.146,0,0,0,4.466.335,29.615,29.615,0,0,0,3.822-.249,24.98,24.98,0,0,0,4.028-.671Zm2.489-11.27c0,.1-.056.326-.606.585-.093.048-.224.086-.336.134a32.762,32.762,0,0,1-5,1.035c-1.147.115-2.368.173-3.645.173a36.969,36.969,0,0,1-4.242-.23,31.131,31.131,0,0,1-4.261-.958A4.582,4.582,0,0,1,2,10.848c-.55-.259-.587-.489-.6-.585s0-1.093,1.37-2.875A20.943,20.943,0,0,1,4.23,5.75H17.711A19.348,19.348,0,0,1,19.156,7.4C20.592,9.2,20.592,10.063,20.564,10.292Z" transform="translate(0)"/><rect width="3.729" height="1.438" transform="translate(9.116 17.729)"/></g></svg>