<svg xmlns="http://www.w3.org/2000/svg" width="18" height="18" viewBox="0 0 18 18">
  <g id="Terms_of_use" data-name="Terms of use" transform="translate(0 -19.652)">
    <g id="Group_1078" data-name="Group 1078" transform="translate(2.483 19.652)">
      <g id="Group_1077" data-name="Group 1077">
        <path id="Path_492" data-name="Path 492" d="M72.769,19.652a2.135,2.135,0,0,0-2.054,2.2L70.64,33.259l1.12.009.075-11.411a.965.965,0,0,1,.934-.991H84.028V19.652Z" transform="translate(-70.64 -19.652)" fill="#999"/>
      </g>
    </g>
    <g id="Group_1080" data-name="Group 1080" transform="translate(0 19.652)">
      <g id="Group_1079" data-name="Group 1079">
        <path id="Path_493" data-name="Path 493" d="M15.871,19.652a2.225,2.225,0,0,0-2.129,2.306v12.8a1.62,1.62,0,0,1-1.55,1.679,1.62,1.62,0,0,1-1.55-1.679V33.283a.585.585,0,0,0-.56-.607H.56a.585.585,0,0,0-.56.607V34.76a2.791,2.791,0,0,0,2.67,2.892V36.439A1.62,1.62,0,0,1,1.12,34.76v-.87h8.4v.87a2.791,2.791,0,0,0,2.67,2.892,2.791,2.791,0,0,0,2.67-2.892V25.274H17.44a.585.585,0,0,0,.56-.607v-2.71A2.225,2.225,0,0,0,15.871,19.652Zm1.008,4.409H14.863v-2.1a1.011,1.011,0,1,1,2.017,0v2.1Z" transform="translate(0 -19.652)" fill="#999"/>
      </g>
    </g>
    <g id="Group_1082" data-name="Group 1082" transform="translate(2.558 36.438)">
      <g id="Group_1081" data-name="Group 1081">
        <rect id="Rectangle_669" data-name="Rectangle 669" width="9.504" height="1.213" fill="#999"/>
      </g>
    </g>
    <g id="Group_1084" data-name="Group 1084" transform="translate(4.873 23.03)">
      <g id="Group_1083" data-name="Group 1083">
        <path id="Path_494" data-name="Path 494" d="M142.076,108.349h-2.894a.609.609,0,0,0,0,1.214h2.894a.609.609,0,0,0,0-1.214Z" transform="translate(-138.622 -108.349)" fill="#999"/>
      </g>
    </g>
    <g id="Group_1086" data-name="Group 1086" transform="translate(4.873 25.456)">
      <g id="Group_1085" data-name="Group 1085">
        <path id="Path_495" data-name="Path 495" d="M145.437,172.083h-6.255a.609.609,0,0,0,0,1.214h6.255a.609.609,0,0,0,0-1.214Z" transform="translate(-138.622 -172.083)" fill="#999"/>
      </g>
    </g>
    <g id="Group_1088" data-name="Group 1088" transform="translate(4.873 27.883)">
      <g id="Group_1087" data-name="Group 1087">
        <path id="Path_496" data-name="Path 496" d="M145.437,235.817h-6.255a.609.609,0,0,0,0,1.214h6.255a.609.609,0,0,0,0-1.214Z" transform="translate(-138.622 -235.817)" fill="#999"/>
      </g>
    </g>
    <g id="Group_1090" data-name="Group 1090" transform="translate(4.873 30.31)">
      <g id="Group_1089" data-name="Group 1089">
        <path id="Path_497" data-name="Path 497" d="M145.437,299.552h-6.255a.609.609,0,0,0,0,1.214h6.255a.609.609,0,0,0,0-1.214Z" transform="translate(-138.622 -299.552)" fill="#999"/>
      </g>
    </g>
  </g>
</svg>
