<svg xmlns="http://www.w3.org/2000/svg" width="21.333" height="22.929" viewBox="0 0 21.333 22.929">
  <g id="Trash" transform="translate(0.6)">
    <g id="Path" transform="translate(2.678 2.797)" fill="#fff">
      <path d="M 12.42168235778809 19.53252410888672 L 2.355422735214233 19.53252410888672 C 1.452802658081055 19.53252410888672 0.7184726595878601 18.79819297790527 0.7184726595878601 17.89558410644531 L 0.7184726595878601 17.87685394287109 L 0.717302680015564 17.85815238952637 L -0.3613280951976776 0.600003182888031 L 15.1384334564209 0.600003182888031 L 14.0598030090332 17.85815238952637 L 14.05863285064697 17.87685394287109 L 14.05863285064697 17.89558410644531 C 14.05863285064697 18.79819297790527 13.32430267333984 19.53252410888672 12.42168235778809 19.53252410888672 Z" stroke="none"/>
      <path d="M 0.2773408889770508 1.200002670288086 L 1.316132545471191 17.82072257995605 L 1.318472862243652 17.85811233520508 L 1.318472862243652 17.89557266235352 C 1.318472862243652 18.46735382080078 1.783642768859863 18.93252372741699 2.355422973632813 18.93252372741699 L 12.42168235778809 18.93252372741699 C 12.99346256256104 18.93252372741699 13.45863246917725 18.46735382080078 13.45863246917725 17.89557266235352 L 13.45863246917725 17.85811233520508 L 13.46097278594971 17.82072257995605 L 14.49976444244385 1.200002670288086 L 0.2773408889770508 1.200002670288086 M -0.9999971389770508 3.814697265625e-06 L 15.77710247039795 3.814697265625e-06 L 14.65863227844238 17.89557266235352 C 14.65863227844238 19.13101387023926 13.65711307525635 20.13252258300781 12.42168235778809 20.13252258300781 L 2.355422973632813 20.13252258300781 C 1.119992256164551 20.13252258300781 0.1184730529785156 19.13101387023926 0.1184730529785156 17.89557266235352 L -0.9999971389770508 3.814697265625e-06 Z" stroke="none" fill="#000"/>
    </g>
    <line id="Line_" data-name="Line " x2="20.133" transform="translate(0 3.355)" fill="none" stroke="#000" stroke-linecap="round" stroke-width="1.2"/>
    <g id="Rectangle" transform="translate(6.152)" fill="#fff" stroke="#000" stroke-width="1.2">
      <path d="M2,0H5.829a2,2,0,0,1,2,2V3.915a0,0,0,0,1,0,0H0a0,0,0,0,1,0,0V2A2,2,0,0,1,2,0Z" stroke="none"/>
      <path d="M2,.6H5.829A1.4,1.4,0,0,1,7.229,2v.715a.6.6,0,0,1-.6.6H1.2a.6.6,0,0,1-.6-.6V2A1.4,1.4,0,0,1,2,.6Z" fill="none"/>
    </g>
    <line id="Line" x1="0.559" y1="12.303" transform="translate(7.27 6.711)" fill="none" stroke="#000" stroke-width="1.2"/>
    <line id="Line_2" data-name="Line " y1="12.303" x2="0.559" transform="translate(12.303 6.711)" fill="none" stroke="#000" stroke-width="1.2"/>
  </g>
</svg>
