<svg xmlns="http://www.w3.org/2000/svg" width="24" height="21" viewBox="0 0 24 21">
  <g id="wallet" transform="translate(0 -1)">
    <path id="Path_233" data-name="Path 233" d="M20.5,22H2.5A2.5,2.5,0,0,1,0,19.5V5.5a.5.5,0,0,1,1,0v14A1.5,1.5,0,0,0,2.5,21h18a.5.5,0,0,0,.5-.5v-3a.5.5,0,0,1,1,0v3A1.5,1.5,0,0,1,20.5,22Z" fill="#667fc3"/>
    <path id="Path_234" data-name="Path 234" d="M21.5,12a.5.5,0,0,1-.5-.5v-3a.5.5,0,0,0-.5-.5H2.5A2.448,2.448,0,0,1,.731,7.259,2.44,2.44,0,0,1,0,5.5,2.5,2.5,0,0,1,2.5,3h8.55a.5.5,0,0,1,0,1H2.5A1.5,1.5,0,0,0,1,5.5a1.458,1.458,0,0,0,.438,1.052A1.469,1.469,0,0,0,2.5,7h18A1.5,1.5,0,0,1,22,8.5v3A.5.5,0,0,1,21.5,12Z" fill="#667fc3"/>
    <path id="Path_235" data-name="Path 235" d="M18.5,8a.5.5,0,0,1-.5-.5v-3a.5.5,0,0,0-.5-.5H15.67a.5.5,0,0,1,0-1H17.5A1.5,1.5,0,0,1,19,4.5v3A.5.5,0,0,1,18.5,8Z" fill="#667fc3"/>
    <path id="Path_236" data-name="Path 236" d="M18,8a.5.5,0,0,1-.432-.248L14.323,2.189,4.757,7.929a.5.5,0,1,1-.514-.858l10-6a.508.508,0,0,1,.381-.056.5.5,0,0,1,.308.232l3.5,6a.5.5,0,0,1-.18.684A.491.491,0,0,1,18,8Z" fill="#667fc3"/>
    <path id="Path_237" data-name="Path 237" d="M23.5,18h-5a3.5,3.5,0,0,1,0-7h5a.5.5,0,0,1,.5.5v6A.5.5,0,0,1,23.5,18Zm-5-6a2.5,2.5,0,0,0,0,5H23V12Z" fill="#667fc3"/>
    <path id="Path_238" data-name="Path 238" d="M18.5,16A1.5,1.5,0,1,1,20,14.5,1.5,1.5,0,0,1,18.5,16Zm0-2a.5.5,0,1,0,.5.5A.5.5,0,0,0,18.5,14Z" fill="#667fc3"/>
  </g>
</svg>
