<svg xmlns="http://www.w3.org/2000/svg" width="79.307" height="72.636" viewBox="0 0 79.307 72.636">
  <g id="wallet_Icon" data-name="wallet Icon" transform="translate(-20 -39.702)">
    <path id="Path_529" data-name="Path 529" d="M399.613,286.828a3.495,3.495,0,1,0,3.495,3.495A3.495,3.495,0,0,0,399.613,286.828Zm0,4.975a1.479,1.479,0,1,1,1.479-1.479A1.479,1.479,0,0,1,399.613,291.8Z" transform="translate(-312.921 -205.603)"/>
    <path id="Path_530" data-name="Path 530" d="M47.008,226.218A1.008,1.008,0,0,0,46,227.226v.8a1.008,1.008,0,0,0,2.016,0v-.8A1.008,1.008,0,0,0,47.008,226.218Z" transform="translate(-21.631 -155.177)"/>
    <path id="Path_531" data-name="Path 531" d="M47.008,252.818A1.008,1.008,0,0,0,46,253.826v12.968a1.008,1.008,0,1,0,2.016,0V253.826A1.008,1.008,0,0,0,47.008,252.818Z" transform="translate(-21.631 -177.308)"/>
    <path id="Path_532" data-name="Path 532" d="M96.283,75.541H94.434V61.288a4.411,4.411,0,0,0-4.4-4.4H83.849V44.159a4.46,4.46,0,0,0-1.813-3.632,4.32,4.32,0,0,0-3.862-.618L24.388,56.876l.01.014h-.03A4.369,4.369,0,0,0,20,61.259v46.758a4.321,4.321,0,0,0,4.321,4.321H90.057a4.39,4.39,0,0,0,4.378-4.378V93.687h1.848a2.984,2.984,0,0,0,3.024-2.972V78.59a3.049,3.049,0,0,0-3.025-3.049Zm-17.5-33.724a2.351,2.351,0,0,1,3.048,2.258V56.89H31Zm13.634,66.2a2.322,2.322,0,0,1-2.361,2.3H24.369a2.315,2.315,0,0,1-2.352-2.3v-5.425h70.4Zm0-7.441h-70.4V68.652H32.434a1.008,1.008,0,0,0,0-2.016H22.016V61.288A2.388,2.388,0,0,1,24.4,58.906H90.057a2.369,2.369,0,0,1,2.361,2.361v5.368H39.491a1.008,1.008,0,1,0,0,2.016H92.418v6.889H81.164a2.043,2.043,0,0,0-2.019,2.041V91.723a1.977,1.977,0,0,0,2.019,1.964H92.418Zm4.873-9.861a.966.966,0,0,1-1.008.956H81.161V77.557H96.283a1.031,1.031,0,0,1,1.008,1.033Z"/>
  </g>
</svg>
