<svg xmlns="http://www.w3.org/2000/svg" width="19.12" height="19.31" viewBox="0 0 19.12 19.31"><defs><style>.a{fill:none;stroke:#999;stroke-linejoin:round;stroke-width:1.5px;}.b{fill:#999;}</style></defs><g transform="translate(0 0)"><path class="a" d="M12,6c0,2.32-1.21,3-3,3S6,8.3,6,6"/><path class="b" d="M17.25,10.19,16.2,1.8A1.81,1.81,0,0,0,14.4,0H3.6A1.81,1.81,0,0,0,1.8,1.8L0,16.2A1.81,1.81,0,0,0,1.8,18H10V16.5H1.8a.31.31,0,0,1-.3-.25L3.29,2V1.8a.29.29,0,0,1,.3-.3H14.4a.29.29,0,0,1,.3.3V2l1,8.2"/><rect class="b" width="7.12" height="1.5" transform="translate(12 15)"/><rect class="b" width="1.5" height="7.12" transform="translate(14.81 12.19)"/></g></svg>