<svg xmlns="http://www.w3.org/2000/svg" width="124.49" height="34.231" viewBox="0 0 124.49 34.231">
  <g id="Logo" transform="translate(-204.95 -19.723)">
    <g id="Group_167" data-name="Group 167" transform="translate(205 22.245)">
      <path id="Path_93" data-name="Path 93" d="M137.319,700.8h3.853a14.019,14.019,0,0,1,2.106.141,6.339,6.339,0,0,1,1.6.436,4.778,4.778,0,0,1,1.2.75,4.721,4.721,0,0,1,.917,1.068,4.818,4.818,0,0,1,.583,1.284,5.27,5.27,0,0,1,.024,2.749,4.793,4.793,0,0,1-.51,1.208,4.656,4.656,0,0,1-.84,1.038,5.138,5.138,0,0,1-.573.461q.416.167.771.351a5.533,5.533,0,0,1,1.054.694,5.067,5.067,0,0,1,.778.82,5.259,5.259,0,0,1,.58.978h0a5.2,5.2,0,0,1,.366,1.1,5.621,5.621,0,0,1,.122,1.181,5.591,5.591,0,0,1-1.821,4.217,5.941,5.941,0,0,1-2.128,1.29,8.105,8.105,0,0,1-2.711.427H137v-16.24h2.545v13.7h2.109a14.042,14.042,0,0,0,1.817-.1,4.869,4.869,0,0,0,1.206-.291h0a3.3,3.3,0,0,0,1.466-1.2,3.245,3.245,0,0,0,.415-.846,2.987,2.987,0,0,0,.137-.9,3.153,3.153,0,0,0-.193-1.113,3.11,3.11,0,0,0-.58-.96h0a3.589,3.589,0,0,0-.93-.751,4.811,4.811,0,0,0-1.246-.48h0a8.6,8.6,0,0,0-1.325-.173q-.639-.043-1.493-.055v-2.612q.642-.02,1.151-.083a4.975,4.975,0,0,0,1.157-.263h0a3.132,3.132,0,0,0,.78-.445,2.863,2.863,0,0,0,.593-.636v0a2.834,2.834,0,0,0,.38-.774,2.892,2.892,0,0,0,.126-.861,2.277,2.277,0,0,0-.823-1.863h0a2.858,2.858,0,0,0-1.1-.509,6.965,6.965,0,0,0-1.7-.18h-1.95v.025H137V700.8Z" transform="translate(-137 -697.324)" stroke="#fff" stroke-miterlimit="2.613" stroke-width="0.1"/>
      <path id="Path_94" data-name="Path 94" d="M359.449,773.174h2.226v1.485h0v13.615H359.13v-15.1Zm3.609.257a4.209,4.209,0,0,1,.97-.444,3.7,3.7,0,0,1,1.1-.167,3.122,3.122,0,0,1,.89.136,4.491,4.491,0,0,1,.917.4l.292.163-1.293,2.078-.252-.108a3.438,3.438,0,0,0-.492-.175,1.481,1.481,0,0,0-.367-.053,2.019,2.019,0,0,0-.792.164,2.965,2.965,0,0,0-.794.519h0c-.06.053-.118.109-.174.169Z" transform="translate(-344.513 -764.604)" stroke="#fff" stroke-miterlimit="2.613" stroke-width="0.1"/>
      <path id="Path_95" data-name="Path 95" d="M490.31,773.484v14.781h-2.424c0-2.455.27-5.863,0-8.237V780h0a5.561,5.561,0,0,0-.345-1.392,5.291,5.291,0,0,0-1.17-1.78,5.208,5.208,0,0,0-1.733-1.189,5.732,5.732,0,0,0-3.512-.215,5.244,5.244,0,0,0-1.291.539h0a5.089,5.089,0,0,0-1.109.858,5.693,5.693,0,0,0-1.594,3.914,5.4,5.4,0,0,0,.184,1.407,5.806,5.806,0,0,0,.555,1.346,5.621,5.621,0,0,0,.867,1.169,5.175,5.175,0,0,0,1.117.872h0a5.339,5.339,0,0,0,1.291.55,5.215,5.215,0,0,0,1.381.181,5.446,5.446,0,0,0,1.4-.181,5.642,5.642,0,0,0,1.326-.544h0a5.3,5.3,0,0,0,1.141-.852c.037-.036.072-.072.108-.11v2.814a7.151,7.151,0,0,1-.849.488h0a7.167,7.167,0,0,1-1.59.554,7.889,7.889,0,0,1-1.727.186,7.519,7.519,0,0,1-2.966-.581,7.675,7.675,0,0,1-2.5-1.735h0a7.828,7.828,0,0,1-1.7-2.567,8.144,8.144,0,0,1-.566-3.062,7.613,7.613,0,0,1,2.285-5.553,7.751,7.751,0,0,1,2.515-1.733h0a7.622,7.622,0,0,1,2.982-.58,7.735,7.735,0,0,1,1.765.2,6.835,6.835,0,0,1,1.6.589h0a6.916,6.916,0,0,1,1.418.988,7.982,7.982,0,0,1,.643.648v-2.068h2.491Z" transform="translate(-452.394 -764.595)" stroke="#fff" stroke-miterlimit="2.613" stroke-width="0.1"/>
      <path id="Path_96" data-name="Path 96" d="M759.519,773.155h2.154v10.468h.017v4.632H759.2v-15.1Zm3.535.811a6.642,6.642,0,0,1,.644-.4h0a6.436,6.436,0,0,1,1.494-.577,6.713,6.713,0,0,1,1.615-.193,5.914,5.914,0,0,1,1.622.217,5.327,5.327,0,0,1,2.607,1.687,5.354,5.354,0,0,1,.813,1.33h0a7.273,7.273,0,0,1,.472,1.862,19.383,19.383,0,0,1,.153,2.6v7.755h-2.491v-7.209q0-1.242-.052-2.054a7.12,7.12,0,0,0-.151-1.2v0a4.259,4.259,0,0,0-.449-1.167,2.754,2.754,0,0,0-1.648-1.3,4.585,4.585,0,0,0-2.744.093,4.477,4.477,0,0,0-1.331.783h0a5.386,5.386,0,0,0-.553.526Z" transform="translate(-718.257 -764.586)" stroke="#fff" stroke-miterlimit="2.613" stroke-width="0.1"/>
      <path id="Path_97" data-name="Path 97" d="M1007.9,693.651v20.364h-2.4c0-2.493.017-4.987.017-7.478a5.874,5.874,0,0,0-.391-2.177,5.3,5.3,0,0,0-1.17-1.78,5.212,5.212,0,0,0-1.732-1.189,5.73,5.73,0,0,0-3.512-.214,5.236,5.236,0,0,0-1.291.539h0a5.09,5.09,0,0,0-1.109.858,5.551,5.551,0,0,0-.861,1.156,5.7,5.7,0,0,0-.551,1.342,5.531,5.531,0,0,0,0,2.824,5.817,5.817,0,0,0,.556,1.346,5.6,5.6,0,0,0,.867,1.169,5.176,5.176,0,0,0,1.116.872h0a5.336,5.336,0,0,0,1.291.55,5.2,5.2,0,0,0,1.38.182,5.439,5.439,0,0,0,1.405-.181,5.6,5.6,0,0,0,1.326-.544h0a5.294,5.294,0,0,0,1.141-.852c.045-.045.09-.09.133-.136v2.824a7.216,7.216,0,0,1-.874.5h0a7.194,7.194,0,0,1-1.591.555,7.928,7.928,0,0,1-1.727.186,7.52,7.52,0,0,1-2.966-.581,7.685,7.685,0,0,1-2.5-1.735h0a7.837,7.837,0,0,1-1.7-2.567,8.141,8.141,0,0,1-.566-3.062,7.632,7.632,0,0,1,2.284-5.552A7.75,7.75,0,0,1,997,699.139a7.948,7.948,0,0,1,4.748-.382,6.785,6.785,0,0,1,1.6.6h0a6.933,6.933,0,0,1,1.417.992,8.052,8.052,0,0,1,.644.65V693.33h2.491v.321Z" transform="translate(-935.925 -690.345)" stroke="#fff" stroke-width="0.1"/>
      <path id="Path_98" data-name="Path 98" d="M1260.153,775.02h2.141l4.026,8.95-1.3,2.969-5.361-11.919Zm11.347.606,3.647-1.076-10.789,23.33h-2.675C1264.571,791.282,1268.6,782.217,1271.5,775.626Z" transform="translate(-1185.785 -766.221)" fill="#ec008c" stroke="#fff" stroke-width="0.1"/>
      <path id="Path_99" data-name="Path 99" d="M1551.715,745.72V762.5h-2.925l.021-15.93Z" transform="translate(-1455.89 -739.288)" stroke="#fff" stroke-width="0.1"/>
      <path id="Path_100" data-name="Path 100" d="M1449.467,653.024c5.728-1.717,11.106-3.334,16.833-5.054v2.57c-6.323,1.979-12.081,3.534-18.14,5.418Z" transform="translate(-1361.881 -647.97)" stroke="#fff" stroke-width="0.1"/>
      <path id="Path_101" data-name="Path 101" d="M1650.935,763.561a7.543,7.543,0,0,0-.427-1.938c-.054-.163-.11-.311-.169-.456a8.11,8.11,0,0,0-4.389-4.336,7.952,7.952,0,0,0-1.427-.416v0l-.073-.016a7.777,7.777,0,0,0-3.386.016,7.81,7.81,0,0,0-1.959.717c-.163.086-.331.184-.5.289a7.8,7.8,0,0,0-1.484,1.172,8.016,8.016,0,0,0-1.263,1.681l-.009.017h0a8.236,8.236,0,0,0-.733,1.743,7.917,7.917,0,0,0-.332,3,7.529,7.529,0,0,0,.275,1.448,7.454,7.454,0,0,0,.32.946,7.772,7.772,0,0,0,1.4,2.2,7.644,7.644,0,0,0,.681.685,7.675,7.675,0,0,0,4.042,1.928,7.954,7.954,0,0,0,1.471.14c.212,0,.422-.009.632-.026a7.7,7.7,0,0,0,2.121-.494c.1-.038.186-.07.265-.1a7.623,7.623,0,0,0,1.332-.712v-2.888a5.889,5.889,0,0,1-.51.541,5.734,5.734,0,0,1-.74.584c-.094.06-.178.111-.257.155a5.929,5.929,0,0,1-1.43.586,6.148,6.148,0,0,1-1.557.195c-.153,0-.313-.007-.487-.019a6.24,6.24,0,0,1-1.292-.264,5.355,5.355,0,0,1-2.343-1.415,5.87,5.87,0,0,1-1-1.3l-.019-.033-.045-.081c-.039-.074-.072-.139-.1-.2l-.009-.017c-.039-.084-.077-.169-.111-.253a5.958,5.958,0,0,1-.426-2.276,6.569,6.569,0,0,1,.126-1.295c.041-.172.083-.325.129-.47a6.448,6.448,0,0,1,.665-1.465,5.848,5.848,0,0,1,.943-1.158l.037-.035a5.8,5.8,0,0,1,1.246-.88,6.091,6.091,0,0,1,3.03-.669,5.78,5.78,0,0,1,1.175.19,6.079,6.079,0,0,1,1.438.6,6.2,6.2,0,0,1,.863.6,6.312,6.312,0,0,1,.543.523,6.2,6.2,0,0,1,.7.922l.017.027.036.061a5.667,5.667,0,0,1,.574,1.407,6.315,6.315,0,0,1,.191,1.574c0,.082,0,.163,0,.244h0v5.362q.182-.189.349-.389a8.519,8.519,0,0,0,1.874-5.94Z" transform="translate(-1536.2 -749.095)" stroke="#fff" stroke-width="0.1"/>
    </g>
    <g id="Group_835" data-name="Group 835" transform="translate(311.156 19.723)">
      <path id="Path_102" data-name="Path 102" d="M1733.55,677.289a.643.643,0,0,1,.188-.469.629.629,0,0,1,.466-.19.644.644,0,0,1,.475.19.675.675,0,0,1,0,.94.645.645,0,0,1-.474.193.629.629,0,0,1-.465-.193A.645.645,0,0,1,1733.55,677.289Z" transform="translate(-1733.31 -672.92)"/>
      <path id="Path_103" data-name="Path 103" d="M1751.4,647.08v1.428a1.962,1.962,0,0,0-.535-.438,1.213,1.213,0,0,0-.572-.139,1.169,1.169,0,0,0-.912.385,1.433,1.433,0,0,0-.349,1,1.339,1.339,0,0,0,.355.956,1.183,1.183,0,0,0,.9.381,1.21,1.21,0,0,0,.571-.139,1.966,1.966,0,0,0,.536-.44v1.43a3.16,3.16,0,0,1-.62.226,2.624,2.624,0,0,1-.621.076,2.692,2.692,0,0,1-.725-.093,2.061,2.061,0,0,1-.611-.284,2.409,2.409,0,0,1-.819-.907,2.648,2.648,0,0,1-.282-1.232,2.686,2.686,0,0,1,.179-1,2.447,2.447,0,0,1,.538-.817,2.242,2.242,0,0,1,.769-.523,2.5,2.5,0,0,1,.95-.174,2.559,2.559,0,0,1,.621.076A2.9,2.9,0,0,1,1751.4,647.08Z" transform="translate(-1745.44 -646.78)"/>
      <path id="Path_104" data-name="Path 104" d="M1784.734,649.334a2.442,2.442,0,0,1-.743,1.779,2.6,2.6,0,0,1-.837.546,2.613,2.613,0,0,1-1.963,0,2.5,2.5,0,0,1-.827-.546,2.412,2.412,0,0,1-.562-.812,2.537,2.537,0,0,1,0-1.934,2.408,2.408,0,0,1,.562-.81,2.5,2.5,0,0,1,.827-.546,2.567,2.567,0,0,1,.984-.192,2.6,2.6,0,0,1,.985.192,2.521,2.521,0,0,1,.831.546,2.45,2.45,0,0,1,.743,1.777Zm-2.559,1.408a1.151,1.151,0,0,0,.9-.4,1.6,1.6,0,0,0-.005-2.014,1.2,1.2,0,0,0-1.792,0,1.621,1.621,0,0,0-.005,2.019A1.152,1.152,0,0,0,1782.174,650.743Z" transform="translate(-1772.948 -646.815)"/>
      <path id="Path_105" data-name="Path 105" d="M1828.633,652.678h-1.222l-.281-2.165c-.02-.153-.037-.322-.055-.509s-.031-.391-.045-.613a6.487,6.487,0,0,1-.18.793c-.019.066-.033.116-.042.147l-.651,2.346h-.871l-.651-2.346c-.009-.032-.022-.08-.039-.147a5.737,5.737,0,0,1-.181-.79c-.012.189-.028.376-.045.562s-.039.371-.062.556l-.283,2.165h-1.214l.74-5.006h1.294l.722,2.582c.005.018.014.048.026.089a3.556,3.556,0,0,1,.129.592,2.223,2.223,0,0,1,.049-.3c.022-.108.057-.239.1-.392l.731-2.575h1.3Z" transform="translate(-1810.349 -647.665)"/>
    </g>
  </g>
</svg>
