<svg xmlns="http://www.w3.org/2000/svg" width="12" height="12" viewBox="0 0 12 12">
  <g id="Icon" transform="translate(-639.5 -1030.5)">
    <path id="Polygon_19" data-name="Polygon 19" d="M7.777.171A1,1,0,0,1,8.865.622l.827,1.354a1,1,0,0,0,.332.332l1.354.827a1,1,0,0,1,.451,1.088l-.372,1.542a1,1,0,0,0,0,.469l.372,1.542a1,1,0,0,1-.451,1.088l-1.354.827a1,1,0,0,0-.332.332l-.827,1.354a1,1,0,0,1-1.088.451l-1.542-.372a1,1,0,0,0-.469,0l-1.542.372a1,1,0,0,1-1.088-.451l-.827-1.354a1,1,0,0,0-.332-.332L.622,8.865A1,1,0,0,1,.171,7.777L.543,6.235a1,1,0,0,0,0-.469L.171,4.223A1,1,0,0,1,.622,3.135l1.354-.827a1,1,0,0,0,.332-.332L3.135.622A1,1,0,0,1,4.223.171L5.765.543a1,1,0,0,0,.469,0Z" transform="translate(639.5 1030.5)" fill="#40b247"/>
    <path id="Union_124" data-name="Union 124" d="M-18991-4441.5l-3.334,4.5Zm-5,2,1.668,2.5Z" transform="translate(19639 5475.999)" fill="rgba(0,0,0,0)" stroke="#fff" stroke-linejoin="round" stroke-width="1"/>
  </g>
</svg>
