<svg xmlns="http://www.w3.org/2000/svg" width="18.574" height="14.087" viewBox="0 0 18.574 14.087">
  <path id="تومان" d="M-18864.559-6002.088a10.807,10.807,0,0,0,2.525-.7q.524-.3.426-1.18V-6004h-1.439a1.787,1.787,0,0,1-1.283-.459,1.879,1.879,0,0,1-.555-1.274,2.35,2.35,0,0,1,.445-1.6,1.691,1.691,0,0,1,1.369-.744,1.744,1.744,0,0,1,1.426.583,2.843,2.843,0,0,1,.686,1.672l.1.9h2.193q1.494,0,1.109-1.407l-.426-1.639.8-.232.451,1.687a1.873,1.873,0,0,1-.285,1.847,2.109,2.109,0,0,1-1.648.668h-2.1a3.069,3.069,0,0,1-.014.729,2.564,2.564,0,0,1-.152.564,1.22,1.22,0,0,1-.346.445,3.689,3.689,0,0,1-.5.341,3.815,3.815,0,0,1-.7.279c-.289.1-.572.171-.852.237s-.635.146-1.066.232Zm1.531-5.069a.96.96,0,0,0-.791.421,1.389,1.389,0,0,0-.232.934.876.876,0,0,0,1,.876h1.34l-.09-.8a1.881,1.881,0,0,0-.406-1.075.983.983,0,0,0-.771-.356Zm-4.951,3.079-1.406-.725c-.383.5-.605.76-1.146.8v0h-.535v0a1.146,1.146,0,0,1-1.023-.476,2.825,2.825,0,0,1-.475-1.7v-1.231l.834-.047v1.279a1.806,1.806,0,0,0,.223,1.028c.133.147.123.223.578.223h.266c.506,0,.568-.208.781-.625l.814-1.554a1.557,1.557,0,0,1,.93-.81,1.451,1.451,0,0,1,1.193.118,1.769,1.769,0,0,1,.891,1.322,2.875,2.875,0,0,1-.318,1.866,1.174,1.174,0,0,1-.672.6,1.1,1.1,0,0,1-.377.067A1.306,1.306,0,0,1-18867.979-6004.078Zm.053-2.965a1.01,1.01,0,0,0-.535.535l-.5.943,1.432.729a.341.341,0,0,0,.5-.156,2.3,2.3,0,0,0,.275-1.2.923.923,0,0,0-.488-.8.78.78,0,0,0-.391-.11A.784.784,0,0,0-18867.926-6007.043Zm-5.354-1.483a2.235,2.235,0,0,1-1.24-.985,3.81,3.81,0,0,1-.475-1.752,6.029,6.029,0,0,1,.408-2.34l.791.317a3.86,3.86,0,0,0-.1,3.169q.633,1.1,2.326.706a6.38,6.38,0,0,0,1.479-.464,1.208,1.208,0,0,0,.516-1.331l-.439-3.013.824-.142q.375,2.516.439,3.022a2.792,2.792,0,0,1-.023,1,1.878,1.878,0,0,1-.309.725,1.833,1.833,0,0,1-.6.507,4.505,4.505,0,0,1-.771.346c-.252.085-.564.17-.93.261a4.317,4.317,0,0,1-.965.117A2.923,2.923,0,0,1-18873.279-6008.526Zm13.7-.677v-.971h2.848v.971Zm-13.148-5.026.762-.772.768.772-.768.758Z" transform="translate(18875.102 6015.143)" stroke="#000" stroke-miterlimit="10" stroke-width="0.2"/>
</svg>
